<?xml version="1.0" encoding="UTF-8"?>
<svg xmlns="http://www.w3.org/2000/svg" xmlns:xlink="http://www.w3.org/1999/xlink" width="20px" height="20px" viewBox="0 0 20 20" version="1.1">
<defs>
<clipPath id="clip1">
  <path d="M 4.054688 3.878906 L 16.441406 3.878906 L 16.441406 15.558594 L 4.054688 15.558594 Z M 4.054688 3.878906 "/>
</clipPath>
<clipPath id="clip2">
  <path d="M 1.582031 9 L 4 9 L 4 11 L 1.582031 11 Z M 1.582031 9 "/>
</clipPath>
<clipPath id="clip3">
  <path d="M 1.582031 8 L 4 8 L 4 10 L 1.582031 10 Z M 1.582031 8 "/>
</clipPath>
<clipPath id="clip4">
  <path d="M 9 1.542969 L 11 1.542969 L 11 4 L 9 4 Z M 9 1.542969 "/>
</clipPath>
<clipPath id="clip5">
  <path d="M 16 7 L 18.777344 7 L 18.777344 9 L 16 9 Z M 16 7 "/>
</clipPath>
<clipPath id="clip6">
  <path d="M 17 8 L 18.777344 8 L 18.777344 10 L 17 10 Z M 17 8 "/>
</clipPath>
<clipPath id="clip7">
  <path d="M 17 9 L 18.777344 9 L 18.777344 11 L 17 11 Z M 17 9 "/>
</clipPath>
<clipPath id="clip8">
  <path d="M 5 15 L 7 15 L 7 17.972656 L 5 17.972656 Z M 5 15 "/>
</clipPath>
<clipPath id="clip9">
  <path d="M 6 16 L 8 16 L 8 17.972656 L 6 17.972656 Z M 6 16 "/>
</clipPath>
<clipPath id="clip10">
  <path d="M 7 15 L 10 15 L 10 17.972656 L 7 17.972656 Z M 7 15 "/>
</clipPath>
<clipPath id="clip11">
  <path d="M 8 16 L 11 16 L 11 17.972656 L 8 17.972656 Z M 8 16 "/>
</clipPath>
<clipPath id="clip12">
  <path d="M 10 16 L 12 16 L 12 17.972656 L 10 17.972656 Z M 10 16 "/>
</clipPath>
<clipPath id="clip13">
  <path d="M 11 16 L 13 16 L 13 17.972656 L 11 17.972656 Z M 11 16 "/>
</clipPath>
<clipPath id="clip14">
  <path d="M 12 15 L 15 15 L 15 17.972656 L 12 17.972656 Z M 12 15 "/>
</clipPath>
</defs>
<g id="surface1">
<path style=" stroke:none;fill-rule:evenodd;fill:rgb(17.254902%,86.27451%,1.568627%);fill-opacity:1;" d="M 12.535156 4.8125 C 12.539062 4.816406 12.558594 4.824219 12.578125 4.832031 C 12.691406 4.851562 12.835938 4.960938 12.886719 5.066406 L 12.917969 5.125 L 12.914062 5.421875 C 12.90625 5.773438 12.886719 5.96875 12.855469 6.007812 C 12.851562 6.015625 12.84375 6.039062 12.839844 6.0625 C 12.832031 6.082031 12.824219 6.117188 12.8125 6.136719 C 12.804688 6.15625 12.78125 6.203125 12.765625 6.238281 C 12.75 6.277344 12.734375 6.3125 12.734375 6.316406 C 12.734375 6.324219 12.730469 6.328125 12.726562 6.332031 C 12.722656 6.332031 12.707031 6.355469 12.691406 6.382812 C 12.652344 6.457031 12.597656 6.542969 12.554688 6.59375 C 12.535156 6.621094 12.515625 6.644531 12.515625 6.648438 C 12.515625 6.6875 12.023438 7.167969 11.984375 7.167969 C 11.980469 7.167969 11.96875 7.179688 11.960938 7.191406 C 11.953125 7.203125 11.9375 7.214844 11.925781 7.214844 C 11.917969 7.214844 11.910156 7.21875 11.90625 7.222656 C 11.898438 7.246094 11.691406 7.386719 11.617188 7.421875 C 11.601562 7.429688 11.574219 7.441406 11.5625 7.449219 C 11.550781 7.460938 11.515625 7.480469 11.488281 7.496094 C 11.460938 7.511719 11.421875 7.53125 11.398438 7.542969 C 11.375 7.550781 11.351562 7.5625 11.347656 7.5625 C 11.339844 7.578125 11.210938 7.636719 11.195312 7.636719 C 11.1875 7.636719 11.179688 7.640625 11.179688 7.644531 C 11.179688 7.652344 11.160156 7.660156 11.136719 7.664062 C 11.113281 7.667969 11.09375 7.675781 11.09375 7.679688 C 11.09375 7.6875 11.070312 7.695312 11.042969 7.707031 C 11.015625 7.714844 10.980469 7.726562 10.964844 7.734375 C 10.953125 7.742188 10.925781 7.753906 10.90625 7.757812 C 10.886719 7.761719 10.867188 7.769531 10.863281 7.773438 C 10.859375 7.777344 10.8125 7.796875 10.753906 7.8125 C 10.695312 7.832031 10.640625 7.851562 10.625 7.855469 C 10.578125 7.875 10.394531 7.925781 10.371094 7.925781 C 10.355469 7.925781 10.339844 7.929688 10.332031 7.9375 C 10.328125 7.945312 10.289062 7.957031 10.25 7.960938 C 10.207031 7.96875 10.160156 7.980469 10.136719 7.992188 C 10.117188 8 10.085938 8.007812 10.070312 8.007812 C 10.050781 8.007812 10.035156 8.011719 10.03125 8.019531 C 10.027344 8.023438 9.996094 8.035156 9.960938 8.042969 C 9.925781 8.050781 9.890625 8.0625 9.882812 8.066406 C 9.878906 8.070312 9.832031 8.089844 9.78125 8.105469 C 9.730469 8.125 9.675781 8.144531 9.660156 8.152344 C 9.644531 8.160156 9.613281 8.171875 9.59375 8.175781 C 9.574219 8.179688 9.554688 8.1875 9.550781 8.191406 C 9.546875 8.199219 9.492188 8.226562 9.429688 8.257812 C 9.367188 8.285156 9.285156 8.328125 9.253906 8.347656 C 9.21875 8.367188 9.183594 8.382812 9.175781 8.390625 C 9.164062 8.394531 9.152344 8.398438 9.148438 8.402344 C 9.144531 8.40625 9.117188 8.425781 9.089844 8.445312 C 9.058594 8.464844 9.03125 8.488281 9.023438 8.496094 C 9.019531 8.503906 9.007812 8.507812 9 8.507812 C 8.992188 8.507812 8.953125 8.539062 8.910156 8.574219 C 8.871094 8.609375 8.832031 8.636719 8.828125 8.636719 C 8.8125 8.636719 8.53125 8.9375 8.53125 8.957031 C 8.53125 8.960938 8.511719 8.988281 8.492188 9.019531 C 8.421875 9.117188 8.359375 9.253906 8.351562 9.328125 L 8.34375 9.378906 L 8.574219 9.390625 C 8.871094 9.402344 11.457031 9.402344 11.707031 9.390625 L 11.898438 9.378906 L 11.890625 9.324219 C 11.890625 9.292969 11.878906 9.257812 11.875 9.246094 C 11.867188 9.234375 11.839844 9.179688 11.808594 9.125 C 11.78125 9.074219 11.746094 9.003906 11.734375 8.980469 L 11.707031 8.929688 L 10.34375 8.929688 C 9.367188 8.929688 8.980469 8.925781 8.972656 8.914062 C 8.964844 8.902344 9.082031 8.777344 9.105469 8.777344 C 9.109375 8.777344 9.121094 8.769531 9.132812 8.757812 C 9.1875 8.714844 9.304688 8.625 9.3125 8.625 C 9.316406 8.625 9.386719 8.582031 9.421875 8.558594 C 9.441406 8.546875 9.476562 8.527344 9.558594 8.484375 L 9.625 8.449219 L 9.996094 8.449219 C 11.003906 8.445312 11.148438 8.4375 11.050781 8.382812 C 11.03125 8.371094 11.011719 8.359375 11.007812 8.355469 C 11.007812 8.351562 10.996094 8.347656 10.984375 8.339844 C 10.835938 8.273438 10.605469 8.152344 10.605469 8.140625 C 10.605469 8.136719 10.636719 8.125 10.671875 8.117188 C 10.707031 8.105469 10.753906 8.09375 10.773438 8.082031 C 10.796875 8.074219 10.820312 8.066406 10.828125 8.066406 C 10.839844 8.066406 10.851562 8.0625 10.859375 8.058594 C 10.863281 8.050781 10.890625 8.039062 10.917969 8.03125 C 10.945312 8.023438 10.976562 8.015625 10.992188 8.007812 C 11.003906 8.003906 11.046875 7.988281 11.082031 7.972656 C 11.160156 7.941406 11.207031 7.921875 11.320312 7.875 C 11.367188 7.851562 11.425781 7.828125 11.449219 7.820312 C 11.472656 7.8125 11.496094 7.800781 11.496094 7.796875 C 11.496094 7.789062 11.5 7.785156 11.507812 7.785156 C 11.515625 7.785156 11.542969 7.777344 11.566406 7.765625 C 11.613281 7.742188 11.613281 7.742188 11.644531 7.765625 C 11.65625 7.777344 11.679688 7.785156 11.6875 7.785156 C 11.695312 7.785156 11.703125 7.789062 11.703125 7.796875 C 11.703125 7.800781 11.730469 7.820312 11.761719 7.839844 C 11.796875 7.859375 11.824219 7.878906 11.824219 7.882812 C 11.824219 7.886719 11.832031 7.890625 11.84375 7.890625 C 11.851562 7.890625 11.867188 7.902344 11.875 7.914062 C 11.882812 7.925781 11.894531 7.9375 11.902344 7.9375 C 11.914062 7.9375 12.03125 8.03125 12.046875 8.050781 C 12.050781 8.058594 12.0625 8.066406 12.070312 8.066406 C 12.089844 8.066406 12.40625 8.371094 12.40625 8.390625 C 12.40625 8.398438 12.410156 8.402344 12.417969 8.402344 C 12.421875 8.402344 12.449219 8.4375 12.480469 8.476562 C 12.511719 8.515625 12.539062 8.554688 12.550781 8.5625 C 12.558594 8.570312 12.566406 8.582031 12.566406 8.585938 C 12.566406 8.589844 12.578125 8.609375 12.59375 8.628906 C 12.613281 8.652344 12.625 8.675781 12.625 8.683594 C 12.625 8.691406 12.628906 8.695312 12.636719 8.695312 C 12.652344 8.695312 12.792969 8.972656 12.820312 9.0625 C 12.835938 9.109375 12.851562 9.152344 12.859375 9.164062 C 12.863281 9.175781 12.875 9.226562 12.882812 9.277344 C 12.886719 9.324219 12.898438 9.382812 12.90625 9.402344 C 12.921875 9.449219 12.921875 9.855469 12.90625 9.882812 C 12.898438 9.894531 12.886719 9.945312 12.878906 9.996094 C 12.871094 10.046875 12.863281 10.09375 12.855469 10.101562 C 12.851562 10.105469 12.84375 10.128906 12.839844 10.152344 C 12.832031 10.1875 12.816406 10.222656 12.761719 10.339844 C 12.734375 10.40625 12.691406 10.484375 12.6875 10.492188 C 12.679688 10.496094 12.652344 10.539062 12.628906 10.582031 C 12.589844 10.65625 12.398438 10.894531 12.363281 10.914062 C 12.351562 10.917969 12.347656 10.929688 12.347656 10.9375 C 12.347656 10.953125 12.171875 11.121094 12.152344 11.121094 C 12.144531 11.121094 12.136719 11.125 12.132812 11.136719 C 12.113281 11.160156 11.949219 11.296875 11.933594 11.296875 C 11.925781 11.296875 11.921875 11.300781 11.921875 11.304688 C 11.921875 11.316406 11.769531 11.421875 11.753906 11.421875 C 11.746094 11.421875 11.738281 11.425781 11.738281 11.433594 C 11.730469 11.441406 11.679688 11.476562 11.582031 11.535156 C 11.417969 11.632812 11.023438 11.816406 10.933594 11.835938 C 10.914062 11.84375 10.894531 11.851562 10.890625 11.855469 C 10.890625 11.863281 10.878906 11.867188 10.867188 11.867188 C 10.855469 11.867188 10.832031 11.875 10.8125 11.882812 C 10.75 11.910156 10.550781 11.972656 10.523438 11.972656 C 10.511719 11.972656 10.496094 11.976562 10.492188 11.980469 C 10.488281 11.988281 10.464844 11.996094 10.433594 12 C 10.40625 12.003906 10.378906 12.011719 10.371094 12.019531 C 10.363281 12.023438 10.328125 12.03125 10.289062 12.039062 C 10.25 12.046875 10.203125 12.0625 10.183594 12.070312 C 10.167969 12.082031 10.136719 12.085938 10.121094 12.085938 C 10.101562 12.085938 10.082031 12.09375 10.082031 12.097656 C 10.078125 12.105469 10.046875 12.113281 10.011719 12.121094 C 9.976562 12.132812 9.941406 12.140625 9.933594 12.144531 C 9.925781 12.148438 9.898438 12.160156 9.867188 12.167969 C 9.808594 12.183594 9.773438 12.195312 9.71875 12.222656 C 9.699219 12.230469 9.675781 12.238281 9.671875 12.238281 C 9.664062 12.238281 9.628906 12.25 9.59375 12.265625 C 9.5625 12.28125 9.503906 12.308594 9.464844 12.324219 C 9.371094 12.367188 9.257812 12.429688 9.191406 12.472656 C 9.160156 12.492188 9.132812 12.507812 9.128906 12.507812 C 9.125 12.507812 8.988281 12.601562 8.980469 12.613281 C 8.976562 12.617188 8.96875 12.621094 8.960938 12.625 C 8.917969 12.640625 8.625 12.921875 8.558594 13.015625 C 8.550781 13.019531 8.53125 13.050781 8.511719 13.078125 C 8.492188 13.105469 8.472656 13.132812 8.46875 13.136719 C 8.441406 13.164062 8.351562 13.371094 8.34375 13.421875 C 8.339844 13.457031 8.34375 13.457031 8.425781 13.46875 C 8.546875 13.492188 11.605469 13.492188 11.777344 13.472656 L 11.894531 13.457031 L 11.894531 13.425781 C 11.894531 13.40625 11.886719 13.367188 11.871094 13.335938 C 11.8125 13.210938 11.792969 13.175781 11.769531 13.144531 C 11.753906 13.125 11.738281 13.097656 11.734375 13.082031 C 11.710938 13.019531 11.800781 13.023438 10.320312 13.011719 C 9.570312 13.007812 8.957031 13 8.957031 12.996094 C 8.957031 12.992188 8.96875 12.976562 8.988281 12.964844 C 9.003906 12.953125 9.035156 12.925781 9.058594 12.90625 C 9.078125 12.886719 9.101562 12.867188 9.105469 12.867188 C 9.109375 12.867188 9.148438 12.839844 9.191406 12.804688 C 9.234375 12.769531 9.277344 12.742188 9.28125 12.742188 C 9.289062 12.742188 9.3125 12.726562 9.335938 12.707031 C 9.375 12.675781 9.417969 12.648438 9.480469 12.621094 C 9.5 12.613281 9.515625 12.601562 9.515625 12.597656 C 9.515625 12.59375 9.519531 12.589844 9.53125 12.589844 C 9.539062 12.589844 9.558594 12.578125 9.574219 12.566406 C 9.605469 12.542969 9.628906 12.542969 10.207031 12.542969 C 10.921875 12.542969 11.070312 12.535156 11.070312 12.507812 C 11.070312 12.488281 10.964844 12.414062 10.9375 12.414062 C 10.929688 12.414062 10.925781 12.410156 10.925781 12.402344 C 10.925781 12.394531 10.917969 12.390625 10.910156 12.390625 C 10.902344 12.390625 10.882812 12.382812 10.867188 12.371094 C 10.847656 12.359375 10.8125 12.339844 10.789062 12.332031 C 10.765625 12.324219 10.746094 12.3125 10.742188 12.308594 C 10.738281 12.304688 10.707031 12.292969 10.675781 12.28125 C 10.574219 12.242188 10.585938 12.230469 10.765625 12.175781 C 10.824219 12.15625 10.886719 12.136719 10.90625 12.128906 C 10.925781 12.121094 10.957031 12.109375 10.972656 12.105469 C 10.988281 12.101562 11.015625 12.09375 11.027344 12.085938 C 11.132812 12.042969 11.167969 12.03125 11.171875 12.03125 C 11.1875 12.03125 11.292969 11.984375 11.445312 11.910156 L 11.597656 11.835938 L 11.648438 11.863281 C 11.675781 11.875 11.707031 11.894531 11.722656 11.898438 C 11.738281 11.90625 11.75 11.917969 11.75 11.925781 C 11.75 11.929688 11.757812 11.9375 11.765625 11.9375 C 11.773438 11.9375 11.804688 11.957031 11.832031 11.980469 C 11.863281 12.003906 11.898438 12.027344 11.902344 12.03125 C 11.984375 12.054688 12.539062 12.589844 12.539062 12.640625 C 12.539062 12.644531 12.558594 12.671875 12.582031 12.699219 C 12.601562 12.726562 12.632812 12.773438 12.652344 12.804688 C 12.667969 12.835938 12.683594 12.867188 12.6875 12.867188 C 12.691406 12.871094 12.699219 12.890625 12.703125 12.90625 C 12.710938 12.925781 12.71875 12.9375 12.722656 12.9375 C 12.726562 12.9375 12.738281 12.960938 12.746094 12.984375 C 12.757812 13.011719 12.765625 13.03125 12.773438 13.03125 C 12.777344 13.03125 12.785156 13.050781 12.789062 13.070312 C 12.792969 13.089844 12.804688 13.113281 12.808594 13.121094 C 12.8125 13.125 12.824219 13.15625 12.832031 13.1875 C 12.839844 13.222656 12.851562 13.253906 12.859375 13.261719 C 12.898438 13.3125 12.941406 14.109375 12.90625 14.144531 C 12.898438 14.148438 12.894531 14.171875 12.894531 14.1875 C 12.894531 14.234375 12.753906 14.367188 12.667969 14.40625 C 12.589844 14.445312 12.292969 14.449219 12.230469 14.414062 C 12.210938 14.40625 12.1875 14.394531 12.179688 14.394531 C 12.15625 14.394531 12.015625 14.269531 12.015625 14.25 C 12.015625 14.238281 12.015625 14.234375 12.007812 14.230469 C 11.996094 14.230469 11.957031 14.136719 11.949219 14.085938 C 11.945312 14.0625 11.941406 14.023438 11.9375 14.003906 L 11.933594 13.964844 L 8.3125 13.964844 L 8.304688 14.007812 C 8.289062 14.101562 8.257812 14.203125 8.234375 14.238281 C 8.195312 14.292969 8.089844 14.382812 8.050781 14.394531 C 8.03125 14.402344 8 14.414062 7.984375 14.421875 C 7.945312 14.441406 7.65625 14.441406 7.617188 14.421875 C 7.601562 14.417969 7.574219 14.402344 7.558594 14.398438 C 7.484375 14.363281 7.421875 14.3125 7.363281 14.230469 L 7.332031 14.191406 L 7.332031 13.796875 C 7.332031 13.5 7.335938 13.402344 7.347656 13.390625 C 7.355469 13.382812 7.363281 13.363281 7.363281 13.347656 C 7.363281 13.320312 7.382812 13.242188 7.402344 13.199219 C 7.40625 13.1875 7.417969 13.15625 7.425781 13.132812 C 7.433594 13.105469 7.453125 13.0625 7.46875 13.035156 C 7.484375 13.007812 7.5 12.964844 7.507812 12.941406 C 7.519531 12.917969 7.539062 12.882812 7.554688 12.859375 C 7.570312 12.839844 7.585938 12.8125 7.59375 12.796875 C 7.625 12.730469 7.785156 12.519531 7.800781 12.519531 C 7.808594 12.519531 7.8125 12.511719 7.8125 12.503906 C 7.8125 12.492188 8.132812 12.179688 8.195312 12.136719 C 8.207031 12.125 8.257812 12.089844 8.304688 12.050781 C 8.355469 12.011719 8.398438 11.984375 8.402344 11.984375 C 8.410156 11.984375 8.5 11.917969 8.550781 11.878906 C 8.558594 11.871094 8.570312 11.867188 8.574219 11.867188 C 8.578125 11.867188 8.609375 11.847656 8.644531 11.824219 C 8.679688 11.804688 8.722656 11.777344 8.742188 11.769531 C 8.761719 11.761719 8.78125 11.753906 8.785156 11.746094 C 8.792969 11.738281 9.125 11.574219 9.140625 11.574219 C 9.144531 11.574219 9.175781 11.5625 9.214844 11.546875 C 9.25 11.53125 9.308594 11.507812 9.351562 11.496094 C 9.390625 11.480469 9.433594 11.464844 9.449219 11.460938 C 9.511719 11.429688 9.753906 11.359375 9.828125 11.34375 C 9.851562 11.339844 9.886719 11.332031 9.902344 11.324219 C 9.917969 11.3125 9.945312 11.308594 9.960938 11.308594 C 9.972656 11.308594 10 11.300781 10.019531 11.289062 C 10.039062 11.28125 10.070312 11.273438 10.085938 11.273438 C 10.101562 11.273438 10.128906 11.265625 10.148438 11.253906 C 10.164062 11.246094 10.207031 11.234375 10.242188 11.226562 C 10.277344 11.21875 10.324219 11.203125 10.339844 11.195312 C 10.355469 11.1875 10.378906 11.179688 10.390625 11.179688 C 10.402344 11.179688 10.414062 11.175781 10.417969 11.167969 C 10.421875 11.164062 10.445312 11.152344 10.472656 11.148438 C 10.496094 11.144531 10.53125 11.132812 10.546875 11.125 C 10.636719 11.082031 10.714844 11.050781 10.734375 11.050781 C 10.746094 11.050781 10.753906 11.046875 10.753906 11.039062 C 10.753906 11.035156 10.773438 11.023438 10.796875 11.015625 C 10.820312 11.007812 10.839844 10.996094 10.839844 10.992188 C 10.839844 10.984375 10.84375 10.980469 10.851562 10.980469 C 10.859375 10.980469 10.902344 10.960938 10.945312 10.933594 C 11.0625 10.867188 11.070312 10.859375 11.113281 10.832031 C 11.136719 10.816406 11.15625 10.804688 11.160156 10.804688 C 11.164062 10.804688 11.195312 10.785156 11.234375 10.757812 C 11.269531 10.734375 11.300781 10.710938 11.308594 10.710938 C 11.328125 10.710938 11.632812 10.40625 11.683594 10.335938 C 11.710938 10.296875 11.738281 10.261719 11.746094 10.253906 C 11.765625 10.226562 11.785156 10.195312 11.816406 10.128906 C 11.835938 10.09375 11.855469 10.050781 11.867188 10.03125 C 11.878906 10.011719 11.890625 9.972656 11.890625 9.941406 L 11.898438 9.886719 L 11.851562 9.878906 C 11.675781 9.851562 8.378906 9.863281 8.347656 9.894531 C 8.316406 9.917969 8.441406 10.191406 8.523438 10.289062 L 8.5625 10.332031 L 9.910156 10.335938 C 10.652344 10.339844 11.265625 10.34375 11.273438 10.34375 C 11.292969 10.351562 11.28125 10.363281 11.160156 10.460938 C 11.113281 10.496094 11.066406 10.535156 11.050781 10.550781 C 11.035156 10.5625 11.019531 10.574219 11.015625 10.574219 C 11.007812 10.574219 10.984375 10.589844 10.953125 10.613281 C 10.925781 10.636719 10.898438 10.652344 10.894531 10.652344 C 10.890625 10.652344 10.863281 10.671875 10.832031 10.691406 C 10.800781 10.710938 10.742188 10.746094 10.699219 10.765625 L 10.621094 10.804688 L 10.289062 10.804688 C 10.105469 10.804688 9.78125 10.808594 9.570312 10.8125 L 9.183594 10.820312 L 9.1875 10.851562 C 9.191406 10.867188 9.203125 10.882812 9.214844 10.890625 C 9.230469 10.898438 9.242188 10.90625 9.246094 10.910156 C 9.253906 10.917969 9.28125 10.929688 9.390625 10.988281 C 9.480469 11.035156 9.484375 11.035156 9.570312 11.074219 C 9.660156 11.113281 9.652344 11.128906 9.53125 11.15625 C 9.5 11.160156 9.460938 11.171875 9.449219 11.175781 C 9.433594 11.183594 9.402344 11.195312 9.378906 11.203125 C 9.34375 11.214844 9.320312 11.222656 9.230469 11.257812 C 9.214844 11.265625 9.1875 11.277344 9.164062 11.285156 C 9.097656 11.304688 9 11.347656 8.804688 11.441406 C 8.613281 11.53125 8.632812 11.53125 8.558594 11.46875 C 8.550781 11.464844 8.539062 11.457031 8.539062 11.457031 C 8.515625 11.457031 8.234375 11.25 8.210938 11.214844 C 8.203125 11.207031 8.195312 11.203125 8.1875 11.203125 C 8.179688 11.203125 8.144531 11.175781 8.113281 11.144531 C 8.082031 11.113281 8.050781 11.085938 8.046875 11.085938 C 8.039062 11.085938 7.996094 11.042969 7.945312 10.996094 C 7.898438 10.945312 7.839844 10.886719 7.816406 10.863281 C 7.796875 10.839844 7.777344 10.816406 7.777344 10.8125 C 7.777344 10.808594 7.753906 10.777344 7.726562 10.746094 C 7.703125 10.714844 7.679688 10.6875 7.679688 10.679688 C 7.679688 10.671875 7.671875 10.664062 7.664062 10.65625 C 7.65625 10.652344 7.644531 10.640625 7.636719 10.628906 C 7.632812 10.621094 7.617188 10.59375 7.597656 10.566406 C 7.582031 10.539062 7.5625 10.503906 7.554688 10.488281 C 7.546875 10.46875 7.535156 10.457031 7.53125 10.457031 C 7.527344 10.457031 7.519531 10.449219 7.519531 10.445312 C 7.519531 10.433594 7.480469 10.339844 7.441406 10.269531 C 7.433594 10.253906 7.421875 10.222656 7.417969 10.199219 C 7.414062 10.175781 7.40625 10.152344 7.398438 10.148438 C 7.394531 10.140625 7.382812 10.097656 7.375 10.046875 C 7.367188 10 7.355469 9.949219 7.347656 9.933594 C 7.328125 9.894531 7.328125 9.335938 7.347656 9.3125 C 7.355469 9.304688 7.363281 9.265625 7.367188 9.230469 C 7.371094 9.195312 7.382812 9.152344 7.394531 9.136719 C 7.402344 9.117188 7.414062 9.085938 7.417969 9.066406 C 7.425781 9.023438 7.472656 8.914062 7.484375 8.90625 C 7.488281 8.902344 7.496094 8.882812 7.503906 8.867188 C 7.507812 8.847656 7.519531 8.820312 7.535156 8.804688 C 7.546875 8.785156 7.558594 8.765625 7.558594 8.757812 C 7.558594 8.75 7.5625 8.742188 7.570312 8.742188 C 7.574219 8.742188 7.582031 8.734375 7.585938 8.722656 C 7.601562 8.683594 7.691406 8.554688 7.746094 8.496094 C 7.753906 8.484375 7.765625 8.46875 7.765625 8.464844 C 7.765625 8.449219 8.105469 8.113281 8.1875 8.050781 C 8.296875 7.964844 8.445312 7.855469 8.453125 7.855469 C 8.457031 7.855469 8.484375 7.839844 8.515625 7.816406 C 8.542969 7.792969 8.574219 7.773438 8.582031 7.773438 C 8.589844 7.773438 8.613281 7.761719 8.636719 7.742188 C 8.660156 7.722656 8.703125 7.699219 8.726562 7.691406 C 8.753906 7.683594 8.773438 7.671875 8.773438 7.667969 C 8.773438 7.65625 9.164062 7.472656 9.1875 7.472656 C 9.199219 7.472656 9.210938 7.46875 9.210938 7.460938 C 9.210938 7.457031 9.226562 7.449219 9.246094 7.445312 C 9.273438 7.4375 9.316406 7.421875 9.394531 7.382812 C 9.414062 7.375 9.457031 7.363281 9.496094 7.355469 C 9.53125 7.347656 9.5625 7.335938 9.5625 7.332031 C 9.5625 7.328125 9.582031 7.320312 9.609375 7.316406 C 9.632812 7.308594 9.660156 7.300781 9.667969 7.296875 C 9.671875 7.292969 9.707031 7.28125 9.746094 7.273438 C 9.78125 7.265625 9.824219 7.253906 9.835938 7.25 C 9.847656 7.246094 9.886719 7.234375 9.914062 7.226562 C 10.058594 7.191406 10.128906 7.171875 10.160156 7.160156 C 10.175781 7.152344 10.210938 7.144531 10.242188 7.140625 C 10.269531 7.136719 10.292969 7.128906 10.296875 7.121094 C 10.300781 7.117188 10.324219 7.109375 10.351562 7.105469 C 10.378906 7.101562 10.40625 7.09375 10.40625 7.085938 C 10.410156 7.082031 10.4375 7.070312 10.464844 7.0625 C 10.542969 7.042969 10.824219 6.914062 10.953125 6.839844 C 10.988281 6.820312 11.023438 6.804688 11.035156 6.800781 C 11.046875 6.796875 11.058594 6.789062 11.058594 6.78125 C 11.058594 6.777344 11.0625 6.773438 11.070312 6.773438 C 11.078125 6.773438 11.101562 6.757812 11.125 6.742188 C 11.144531 6.726562 11.171875 6.714844 11.175781 6.714844 C 11.183594 6.714844 11.191406 6.710938 11.191406 6.703125 C 11.191406 6.699219 11.210938 6.679688 11.238281 6.664062 C 11.261719 6.648438 11.3125 6.609375 11.351562 6.574219 C 11.390625 6.542969 11.421875 6.515625 11.425781 6.515625 C 11.4375 6.515625 11.59375 6.367188 11.59375 6.359375 C 11.59375 6.355469 11.617188 6.324219 11.648438 6.292969 C 11.679688 6.257812 11.710938 6.214844 11.722656 6.195312 C 11.734375 6.175781 11.75 6.152344 11.757812 6.144531 C 11.765625 6.132812 11.789062 6.089844 11.8125 6.050781 C 11.832031 6.007812 11.859375 5.957031 11.867188 5.9375 C 11.878906 5.917969 11.890625 5.878906 11.894531 5.84375 L 11.898438 5.785156 L 11.714844 5.777344 C 11.09375 5.75 8.355469 5.773438 8.34375 5.800781 C 8.335938 5.820312 8.367188 5.941406 8.382812 5.949219 C 8.390625 5.953125 8.398438 5.972656 8.402344 5.996094 C 8.40625 6.019531 8.414062 6.039062 8.417969 6.039062 C 8.421875 6.039062 8.433594 6.050781 8.441406 6.070312 C 8.460938 6.113281 8.496094 6.167969 8.519531 6.195312 C 8.546875 6.230469 9.128906 6.25 10.328125 6.25 L 11.296875 6.25 L 11.246094 6.289062 C 11.21875 6.3125 11.179688 6.347656 11.160156 6.363281 C 11.140625 6.382812 11.121094 6.398438 11.113281 6.398438 C 11.109375 6.398438 11.066406 6.429688 11.023438 6.464844 C 10.90625 6.558594 10.902344 6.5625 10.890625 6.5625 C 10.886719 6.5625 10.875 6.570312 10.863281 6.578125 C 10.855469 6.585938 10.824219 6.605469 10.800781 6.617188 C 10.714844 6.664062 10.699219 6.671875 10.695312 6.679688 C 10.664062 6.710938 10.058594 6.734375 9.273438 6.738281 C 9.152344 6.738281 9.113281 6.753906 9.164062 6.777344 C 9.171875 6.78125 9.203125 6.796875 9.230469 6.8125 C 9.253906 6.828125 9.308594 6.855469 9.34375 6.871094 C 9.382812 6.890625 9.414062 6.910156 9.417969 6.914062 C 9.421875 6.917969 9.445312 6.925781 9.46875 6.9375 C 9.492188 6.945312 9.515625 6.957031 9.515625 6.960938 C 9.515625 6.964844 9.53125 6.972656 9.550781 6.976562 C 9.570312 6.980469 9.585938 6.988281 9.585938 6.992188 C 9.585938 7 9.597656 7.003906 9.613281 7.007812 C 9.644531 7.015625 9.640625 7.039062 9.605469 7.039062 C 9.589844 7.039062 9.574219 7.042969 9.570312 7.050781 C 9.566406 7.054688 9.53125 7.066406 9.492188 7.074219 C 9.453125 7.082031 9.421875 7.09375 9.417969 7.097656 C 9.414062 7.101562 9.390625 7.113281 9.367188 7.117188 C 9.304688 7.140625 9.21875 7.167969 9.191406 7.179688 C 9.179688 7.183594 9.140625 7.203125 9.105469 7.214844 C 9.074219 7.230469 9.019531 7.253906 8.984375 7.269531 C 8.949219 7.285156 8.914062 7.296875 8.910156 7.296875 C 8.90625 7.296875 8.847656 7.324219 8.78125 7.355469 C 8.621094 7.433594 8.613281 7.433594 8.457031 7.316406 C 8.421875 7.292969 8.394531 7.273438 8.386719 7.273438 C 8.382812 7.273438 8.367188 7.261719 8.351562 7.246094 C 8.335938 7.226562 8.320312 7.214844 8.316406 7.214844 C 8.304688 7.214844 8.175781 7.109375 8.160156 7.089844 C 8.15625 7.082031 8.144531 7.074219 8.136719 7.074219 C 8.117188 7.074219 7.863281 6.828125 7.863281 6.8125 C 7.863281 6.804688 7.855469 6.792969 7.84375 6.789062 C 7.835938 6.78125 7.804688 6.746094 7.773438 6.707031 C 7.742188 6.667969 7.707031 6.628906 7.699219 6.621094 C 7.6875 6.609375 7.679688 6.597656 7.679688 6.59375 C 7.679688 6.585938 7.664062 6.5625 7.644531 6.539062 C 7.605469 6.492188 7.597656 6.484375 7.515625 6.320312 C 7.484375 6.257812 7.449219 6.191406 7.441406 6.175781 C 7.429688 6.160156 7.425781 6.136719 7.425781 6.128906 C 7.425781 6.121094 7.417969 6.101562 7.40625 6.082031 C 7.398438 6.066406 7.382812 6.015625 7.375 5.972656 C 7.367188 5.929688 7.355469 5.886719 7.347656 5.875 C 7.339844 5.867188 7.332031 5.714844 7.328125 5.492188 L 7.324219 5.121094 L 7.351562 5.0625 C 7.382812 5 7.46875 4.90625 7.492188 4.90625 C 7.503906 4.90625 7.507812 4.902344 7.507812 4.898438 C 7.507812 4.886719 7.59375 4.847656 7.679688 4.820312 C 7.796875 4.78125 8.046875 4.824219 8.105469 4.894531 C 8.109375 4.898438 8.128906 4.914062 8.148438 4.929688 C 8.171875 4.945312 8.191406 4.964844 8.191406 4.972656 C 8.191406 4.980469 8.195312 4.988281 8.199219 4.988281 C 8.238281 4.988281 8.296875 5.152344 8.296875 5.25 L 8.300781 5.304688 L 10.117188 5.300781 L 11.9375 5.296875 L 11.945312 5.210938 C 11.957031 5.066406 12.0625 4.917969 12.1875 4.863281 C 12.320312 4.808594 12.511719 4.777344 12.535156 4.8125 "/>
<g clip-path="url(#clip1)" clip-rule="nonzero">
<path style=" stroke:none;fill-rule:evenodd;fill:rgb(26.666667%,42.352941%,76.470588%);fill-opacity:1;" d="M 10.773438 3.917969 C 10.851562 3.925781 10.929688 3.933594 10.941406 3.9375 C 10.957031 3.945312 11.011719 3.953125 11.070312 3.957031 C 11.125 3.960938 11.179688 3.96875 11.183594 3.972656 C 11.191406 3.980469 11.25 3.988281 11.3125 3.996094 C 11.375 4.003906 11.433594 4.015625 11.445312 4.019531 C 11.457031 4.027344 11.496094 4.035156 11.527344 4.039062 C 11.5625 4.042969 11.59375 4.050781 11.59375 4.054688 C 11.59375 4.0625 11.636719 4.070312 11.691406 4.078125 C 11.742188 4.085938 11.785156 4.097656 11.785156 4.101562 C 11.785156 4.105469 11.824219 4.117188 11.871094 4.125 C 11.917969 4.132812 11.957031 4.144531 11.957031 4.148438 C 11.957031 4.15625 11.980469 4.164062 12.007812 4.167969 C 12.039062 4.171875 12.066406 4.179688 12.074219 4.183594 C 12.078125 4.1875 12.113281 4.199219 12.148438 4.207031 C 12.183594 4.21875 12.210938 4.226562 12.210938 4.230469 C 12.210938 4.238281 12.234375 4.246094 12.261719 4.25 C 12.289062 4.253906 12.308594 4.261719 12.308594 4.265625 C 12.308594 4.269531 12.335938 4.28125 12.371094 4.289062 C 12.402344 4.296875 12.429688 4.308594 12.429688 4.3125 C 12.429688 4.316406 12.445312 4.324219 12.46875 4.328125 C 12.488281 4.332031 12.527344 4.347656 12.558594 4.359375 C 12.585938 4.371094 12.617188 4.382812 12.625 4.382812 C 12.632812 4.382812 12.636719 4.386719 12.636719 4.394531 C 12.636719 4.402344 12.652344 4.410156 12.671875 4.414062 C 12.6875 4.417969 12.726562 4.433594 12.753906 4.445312 C 12.78125 4.457031 12.828125 4.476562 12.855469 4.492188 C 12.886719 4.503906 12.914062 4.519531 12.917969 4.523438 C 12.921875 4.527344 12.941406 4.539062 12.96875 4.546875 C 12.992188 4.554688 13.015625 4.5625 13.015625 4.570312 C 13.015625 4.574219 13.03125 4.582031 13.050781 4.585938 C 13.070312 4.589844 13.089844 4.601562 13.089844 4.609375 C 13.09375 4.617188 13.113281 4.628906 13.136719 4.632812 C 13.15625 4.636719 13.171875 4.644531 13.171875 4.652344 C 13.171875 4.65625 13.175781 4.664062 13.183594 4.664062 C 13.195312 4.664062 13.289062 4.71875 13.304688 4.730469 C 13.316406 4.742188 13.382812 4.777344 13.417969 4.792969 C 13.4375 4.796875 13.453125 4.808594 13.453125 4.8125 C 13.453125 4.820312 13.46875 4.828125 13.488281 4.835938 C 13.507812 4.84375 13.523438 4.855469 13.523438 4.863281 C 13.523438 4.867188 13.53125 4.871094 13.539062 4.871094 C 13.546875 4.871094 13.625 4.921875 13.644531 4.941406 C 13.648438 4.945312 13.675781 4.964844 13.703125 4.980469 C 13.730469 5 13.753906 5.019531 13.753906 5.023438 C 13.753906 5.027344 13.773438 5.035156 13.792969 5.046875 C 13.8125 5.054688 13.84375 5.074219 13.867188 5.09375 C 13.886719 5.113281 13.90625 5.128906 13.910156 5.128906 C 13.917969 5.128906 13.933594 5.140625 13.949219 5.15625 C 13.964844 5.175781 13.980469 5.1875 13.988281 5.1875 C 13.996094 5.1875 14.019531 5.203125 14.140625 5.316406 C 14.179688 5.347656 14.210938 5.375 14.214844 5.375 C 14.226562 5.375 14.589844 5.71875 14.667969 5.800781 C 14.695312 5.832031 14.738281 5.878906 14.761719 5.90625 C 14.785156 5.933594 14.824219 5.976562 14.847656 6 C 14.867188 6.019531 14.886719 6.042969 14.886719 6.046875 C 14.886719 6.054688 14.898438 6.070312 14.917969 6.085938 C 14.933594 6.101562 14.945312 6.117188 14.945312 6.121094 C 14.945312 6.128906 14.984375 6.175781 15.03125 6.222656 C 15.042969 6.234375 15.058594 6.257812 15.066406 6.273438 C 15.078125 6.292969 15.089844 6.304688 15.09375 6.304688 C 15.101562 6.304688 15.105469 6.3125 15.105469 6.324219 C 15.105469 6.332031 15.113281 6.34375 15.121094 6.347656 C 15.132812 6.351562 15.140625 6.363281 15.140625 6.371094 C 15.140625 6.378906 15.152344 6.394531 15.164062 6.40625 C 15.195312 6.441406 15.25 6.523438 15.25 6.535156 C 15.25 6.542969 15.257812 6.550781 15.269531 6.554688 C 15.277344 6.558594 15.285156 6.570312 15.285156 6.578125 C 15.285156 6.585938 15.296875 6.605469 15.3125 6.621094 C 15.324219 6.636719 15.335938 6.65625 15.335938 6.664062 C 15.335938 6.671875 15.339844 6.679688 15.347656 6.679688 C 15.351562 6.679688 15.363281 6.695312 15.371094 6.71875 C 15.382812 6.738281 15.390625 6.757812 15.394531 6.761719 C 15.414062 6.777344 15.457031 6.84375 15.464844 6.871094 C 15.46875 6.886719 15.476562 6.902344 15.480469 6.902344 C 15.484375 6.902344 15.496094 6.917969 15.507812 6.9375 C 15.515625 6.960938 15.527344 6.980469 15.527344 6.980469 C 15.542969 6.992188 15.601562 7.117188 15.601562 7.128906 C 15.601562 7.136719 15.605469 7.144531 15.613281 7.148438 C 15.625 7.152344 15.6875 7.277344 15.6875 7.300781 C 15.6875 7.3125 15.691406 7.320312 15.699219 7.320312 C 15.703125 7.320312 15.714844 7.339844 15.726562 7.367188 C 15.734375 7.390625 15.746094 7.414062 15.75 7.414062 C 15.757812 7.414062 15.761719 7.421875 15.761719 7.429688 C 15.761719 7.441406 15.773438 7.472656 15.785156 7.5 C 15.800781 7.53125 15.8125 7.570312 15.816406 7.589844 C 15.820312 7.609375 15.828125 7.625 15.835938 7.625 C 15.839844 7.625 15.851562 7.652344 15.859375 7.6875 C 15.867188 7.722656 15.878906 7.75 15.882812 7.75 C 15.886719 7.75 15.894531 7.773438 15.898438 7.796875 C 15.90625 7.824219 15.914062 7.847656 15.917969 7.851562 C 15.925781 7.855469 15.9375 7.886719 15.945312 7.925781 C 15.953125 7.964844 15.960938 7.996094 15.96875 7.996094 C 15.972656 7.996094 15.980469 8.019531 15.988281 8.050781 C 15.992188 8.078125 16 8.105469 16.003906 8.105469 C 16.011719 8.109375 16.023438 8.152344 16.03125 8.199219 C 16.039062 8.25 16.050781 8.289062 16.054688 8.289062 C 16.058594 8.289062 16.070312 8.332031 16.078125 8.386719 C 16.085938 8.441406 16.097656 8.484375 16.101562 8.484375 C 16.105469 8.484375 16.113281 8.519531 16.121094 8.566406 C 16.125 8.609375 16.132812 8.648438 16.136719 8.65625 C 16.148438 8.667969 16.175781 8.855469 16.175781 8.917969 C 16.175781 8.941406 16.179688 8.964844 16.183594 8.964844 C 16.238281 8.984375 16.238281 10.441406 16.1875 10.480469 C 16.183594 10.480469 16.171875 10.550781 16.164062 10.628906 C 16.15625 10.710938 16.144531 10.78125 16.136719 10.789062 C 16.132812 10.792969 16.125 10.835938 16.121094 10.878906 C 16.113281 10.921875 16.105469 10.957031 16.101562 10.957031 C 16.097656 10.957031 16.085938 11 16.078125 11.054688 C 16.070312 11.109375 16.058594 11.15625 16.054688 11.15625 C 16.050781 11.15625 16.039062 11.195312 16.03125 11.242188 C 16.023438 11.289062 16.011719 11.332031 16.003906 11.335938 C 16 11.339844 15.992188 11.363281 15.988281 11.394531 C 15.980469 11.421875 15.972656 11.445312 15.96875 11.445312 C 15.960938 11.445312 15.953125 11.476562 15.945312 11.515625 C 15.9375 11.554688 15.925781 11.589844 15.917969 11.59375 C 15.914062 11.59375 15.90625 11.621094 15.898438 11.644531 C 15.894531 11.671875 15.886719 11.691406 15.882812 11.691406 C 15.878906 11.691406 15.867188 11.71875 15.859375 11.753906 C 15.851562 11.789062 15.839844 11.820312 15.835938 11.820312 C 15.828125 11.820312 15.820312 11.835938 15.816406 11.855469 C 15.8125 11.875 15.800781 11.914062 15.785156 11.941406 C 15.773438 11.96875 15.761719 12 15.761719 12.011719 C 15.761719 12.019531 15.757812 12.03125 15.75 12.03125 C 15.746094 12.03125 15.734375 12.050781 15.726562 12.074219 C 15.714844 12.101562 15.703125 12.121094 15.699219 12.121094 C 15.691406 12.121094 15.6875 12.132812 15.6875 12.140625 C 15.6875 12.164062 15.625 12.289062 15.613281 12.296875 C 15.605469 12.296875 15.601562 12.304688 15.601562 12.3125 C 15.601562 12.328125 15.542969 12.449219 15.527344 12.460938 C 15.527344 12.464844 15.515625 12.484375 15.507812 12.503906 C 15.496094 12.523438 15.484375 12.542969 15.480469 12.542969 C 15.476562 12.542969 15.46875 12.554688 15.464844 12.574219 C 15.457031 12.597656 15.414062 12.664062 15.394531 12.683594 C 15.390625 12.683594 15.382812 12.703125 15.371094 12.726562 C 15.363281 12.746094 15.351562 12.765625 15.347656 12.765625 C 15.34375 12.765625 15.335938 12.777344 15.332031 12.792969 C 15.328125 12.808594 15.320312 12.820312 15.3125 12.820312 C 15.308594 12.820312 15.296875 12.835938 15.285156 12.855469 C 15.277344 12.875 15.265625 12.890625 15.261719 12.890625 C 15.253906 12.890625 15.25 12.898438 15.25 12.90625 C 15.25 12.921875 15.199219 13 15.164062 13.035156 C 15.152344 13.050781 15.140625 13.066406 15.140625 13.074219 C 15.140625 13.082031 15.132812 13.089844 15.121094 13.09375 C 15.113281 13.097656 15.105469 13.109375 15.105469 13.117188 C 15.105469 13.128906 15.101562 13.136719 15.09375 13.136719 C 15.089844 13.136719 15.078125 13.152344 15.066406 13.167969 C 15.046875 13.203125 15.039062 13.214844 14.984375 13.273438 C 14.960938 13.296875 14.945312 13.316406 14.945312 13.316406 C 14.945312 13.320312 14.921875 13.351562 14.890625 13.386719 C 14.863281 13.425781 14.832031 13.460938 14.820312 13.472656 C 14.8125 13.480469 14.789062 13.503906 14.769531 13.527344 C 14.75 13.546875 14.714844 13.585938 14.691406 13.617188 C 14.636719 13.679688 14.230469 14.070312 14.214844 14.070312 C 14.210938 14.070312 14.179688 14.09375 14.144531 14.125 C 14.039062 14.222656 13.996094 14.253906 13.988281 14.253906 C 13.980469 14.253906 13.964844 14.269531 13.949219 14.285156 C 13.933594 14.300781 13.917969 14.3125 13.910156 14.3125 C 13.90625 14.3125 13.886719 14.328125 13.867188 14.347656 C 13.847656 14.363281 13.816406 14.386719 13.796875 14.394531 C 13.777344 14.40625 13.746094 14.425781 13.730469 14.445312 C 13.710938 14.460938 13.6875 14.476562 13.683594 14.476562 C 13.675781 14.476562 13.664062 14.484375 13.65625 14.492188 C 13.621094 14.523438 13.550781 14.570312 13.539062 14.570312 C 13.53125 14.570312 13.523438 14.574219 13.523438 14.578125 C 13.523438 14.585938 13.507812 14.597656 13.484375 14.609375 C 13.445312 14.628906 13.410156 14.648438 13.386719 14.667969 C 13.351562 14.691406 13.191406 14.78125 13.183594 14.78125 C 13.175781 14.78125 13.171875 14.785156 13.171875 14.792969 C 13.171875 14.796875 13.15625 14.804688 13.136719 14.808594 C 13.113281 14.8125 13.09375 14.824219 13.089844 14.832031 C 13.089844 14.839844 13.070312 14.851562 13.050781 14.855469 C 13.03125 14.859375 13.015625 14.867188 13.015625 14.875 C 13.015625 14.878906 12.992188 14.890625 12.96875 14.898438 C 12.941406 14.90625 12.921875 14.914062 12.917969 14.917969 C 12.90625 14.929688 12.777344 14.988281 12.761719 14.988281 C 12.753906 14.988281 12.746094 14.996094 12.746094 15 C 12.746094 15.007812 12.722656 15.015625 12.691406 15.023438 C 12.664062 15.03125 12.636719 15.042969 12.636719 15.046875 C 12.636719 15.054688 12.632812 15.058594 12.625 15.058594 C 12.617188 15.058594 12.585938 15.070312 12.558594 15.082031 C 12.527344 15.097656 12.488281 15.109375 12.46875 15.113281 C 12.445312 15.117188 12.429688 15.125 12.429688 15.128906 C 12.429688 15.136719 12.402344 15.144531 12.371094 15.152344 C 12.335938 15.160156 12.308594 15.171875 12.308594 15.175781 C 12.308594 15.183594 12.289062 15.191406 12.261719 15.195312 C 12.234375 15.199219 12.210938 15.207031 12.210938 15.210938 C 12.210938 15.214844 12.183594 15.226562 12.148438 15.234375 C 12.113281 15.242188 12.078125 15.253906 12.074219 15.257812 C 12.066406 15.261719 12.039062 15.269531 12.007812 15.277344 C 11.980469 15.28125 11.957031 15.289062 11.957031 15.292969 C 11.957031 15.296875 11.917969 15.308594 11.871094 15.316406 C 11.824219 15.324219 11.785156 15.335938 11.785156 15.339844 C 11.785156 15.34375 11.746094 15.355469 11.691406 15.363281 C 11.640625 15.371094 11.597656 15.382812 11.59375 15.386719 C 11.585938 15.394531 11.492188 15.414062 11.320312 15.441406 C 11.25 15.453125 11.191406 15.464844 11.183594 15.46875 C 11.179688 15.472656 11.125 15.480469 11.0625 15.484375 C 11.003906 15.492188 10.949219 15.5 10.941406 15.503906 C 10.882812 15.546875 9.433594 15.546875 9.375 15.503906 C 9.367188 15.496094 9.3125 15.488281 9.25 15.484375 C 9.1875 15.480469 9.136719 15.472656 9.136719 15.46875 C 9.136719 15.464844 9.082031 15.453125 9.011719 15.445312 C 8.941406 15.4375 8.878906 15.425781 8.875 15.421875 C 8.871094 15.417969 8.839844 15.410156 8.804688 15.40625 C 8.765625 15.398438 8.734375 15.390625 8.734375 15.386719 C 8.734375 15.382812 8.695312 15.371094 8.640625 15.363281 C 8.589844 15.355469 8.542969 15.34375 8.535156 15.339844 C 8.527344 15.335938 8.492188 15.324219 8.449219 15.316406 C 8.410156 15.308594 8.371094 15.296875 8.367188 15.292969 C 8.359375 15.289062 8.335938 15.28125 8.3125 15.277344 C 8.289062 15.269531 8.261719 15.261719 8.257812 15.257812 C 8.25 15.253906 8.214844 15.242188 8.179688 15.234375 C 8.144531 15.226562 8.117188 15.214844 8.117188 15.210938 C 8.117188 15.207031 8.097656 15.199219 8.070312 15.195312 C 8.046875 15.191406 8.015625 15.179688 8.003906 15.167969 C 7.988281 15.160156 7.964844 15.152344 7.949219 15.152344 C 7.9375 15.152344 7.917969 15.144531 7.90625 15.136719 C 7.898438 15.128906 7.875 15.117188 7.855469 15.113281 C 7.835938 15.109375 7.796875 15.09375 7.769531 15.082031 C 7.738281 15.070312 7.710938 15.058594 7.703125 15.058594 C 7.695312 15.058594 7.691406 15.054688 7.691406 15.050781 C 7.691406 15.042969 7.675781 15.035156 7.65625 15.03125 C 7.617188 15.023438 7.417969 14.929688 7.414062 14.917969 C 7.410156 14.914062 7.402344 14.910156 7.394531 14.910156 C 7.378906 14.910156 7.253906 14.847656 7.230469 14.828125 C 7.222656 14.820312 7.203125 14.8125 7.1875 14.808594 C 7.167969 14.804688 7.15625 14.796875 7.15625 14.792969 C 7.15625 14.789062 7.140625 14.777344 7.117188 14.769531 C 7.09375 14.761719 7.074219 14.75 7.070312 14.746094 C 7.0625 14.734375 7.019531 14.710938 6.976562 14.691406 C 6.957031 14.683594 6.9375 14.667969 6.9375 14.664062 C 6.9375 14.65625 6.929688 14.652344 6.921875 14.652344 C 6.914062 14.652344 6.890625 14.640625 6.878906 14.628906 C 6.863281 14.617188 6.839844 14.605469 6.832031 14.605469 C 6.824219 14.605469 6.8125 14.597656 6.808594 14.589844 C 6.804688 14.578125 6.796875 14.570312 6.789062 14.570312 C 6.78125 14.570312 6.742188 14.546875 6.699219 14.519531 C 6.660156 14.488281 6.621094 14.464844 6.617188 14.464844 C 6.613281 14.464844 6.59375 14.453125 6.578125 14.4375 C 6.558594 14.417969 6.511719 14.382812 6.46875 14.355469 C 6.394531 14.300781 6.351562 14.269531 6.328125 14.25 C 6.292969 14.222656 6.164062 14.121094 6.132812 14.09375 C 6.074219 14.042969 5.632812 13.617188 5.585938 13.566406 C 5.5625 13.539062 5.519531 13.492188 5.492188 13.460938 C 5.464844 13.433594 5.441406 13.40625 5.441406 13.398438 C 5.441406 13.394531 5.425781 13.378906 5.40625 13.359375 C 5.386719 13.339844 5.371094 13.320312 5.371094 13.316406 C 5.371094 13.308594 5.324219 13.25 5.289062 13.21875 C 5.28125 13.207031 5.273438 13.191406 5.273438 13.183594 C 5.273438 13.179688 5.265625 13.171875 5.261719 13.171875 C 5.253906 13.171875 5.242188 13.15625 5.234375 13.140625 C 5.226562 13.121094 5.210938 13.097656 5.199219 13.089844 C 5.175781 13.0625 5.164062 13.046875 5.121094 12.984375 C 5.101562 12.957031 5.082031 12.929688 5.078125 12.925781 C 5.074219 12.921875 5.0625 12.90625 5.054688 12.886719 C 5.042969 12.867188 5.03125 12.84375 5.023438 12.835938 C 5.015625 12.828125 5.007812 12.816406 5 12.808594 C 4.992188 12.800781 4.980469 12.777344 4.96875 12.753906 C 4.960938 12.734375 4.949219 12.71875 4.945312 12.71875 C 4.941406 12.71875 4.929688 12.703125 4.921875 12.683594 C 4.90625 12.648438 4.867188 12.585938 4.859375 12.578125 C 4.855469 12.574219 4.84375 12.554688 4.835938 12.535156 C 4.824219 12.511719 4.8125 12.496094 4.808594 12.496094 C 4.804688 12.496094 4.796875 12.480469 4.792969 12.460938 C 4.789062 12.441406 4.78125 12.425781 4.773438 12.425781 C 4.769531 12.425781 4.757812 12.40625 4.75 12.382812 C 4.742188 12.359375 4.730469 12.335938 4.726562 12.332031 C 4.71875 12.328125 4.660156 12.207031 4.640625 12.164062 C 4.628906 12.132812 4.570312 12.007812 4.550781 11.972656 C 4.542969 11.957031 4.53125 11.925781 4.527344 11.902344 C 4.519531 11.882812 4.511719 11.867188 4.507812 11.867188 C 4.5 11.867188 4.496094 11.855469 4.496094 11.847656 C 4.496094 11.835938 4.488281 11.8125 4.476562 11.792969 C 4.46875 11.773438 4.453125 11.738281 4.445312 11.710938 C 4.4375 11.683594 4.425781 11.644531 4.414062 11.625 C 4.40625 11.605469 4.394531 11.570312 4.390625 11.542969 C 4.386719 11.515625 4.378906 11.492188 4.375 11.492188 C 4.367188 11.492188 4.359375 11.472656 4.355469 11.449219 C 4.351562 11.425781 4.34375 11.402344 4.339844 11.394531 C 4.332031 11.386719 4.320312 11.347656 4.3125 11.308594 C 4.304688 11.265625 4.292969 11.226562 4.289062 11.21875 C 4.28125 11.210938 4.269531 11.167969 4.261719 11.117188 C 4.253906 11.066406 4.242188 11.027344 4.238281 11.027344 C 4.234375 11.027344 4.226562 10.996094 4.222656 10.953125 C 4.214844 10.914062 4.207031 10.875 4.203125 10.871094 C 4.199219 10.863281 4.1875 10.804688 4.179688 10.742188 C 4.171875 10.675781 4.160156 10.613281 4.15625 10.601562 C 4.148438 10.589844 4.136719 10.523438 4.132812 10.457031 C 4.125 10.386719 4.113281 10.289062 4.105469 10.234375 C 4.09375 10.105469 4.09375 9.335938 4.105469 9.207031 C 4.113281 9.152344 4.125 9.054688 4.132812 8.988281 C 4.136719 8.917969 4.148438 8.855469 4.15625 8.839844 C 4.160156 8.828125 4.171875 8.765625 4.179688 8.703125 C 4.1875 8.636719 4.199219 8.578125 4.203125 8.574219 C 4.207031 8.566406 4.214844 8.527344 4.222656 8.488281 C 4.226562 8.449219 4.234375 8.414062 4.238281 8.414062 C 4.242188 8.414062 4.253906 8.375 4.261719 8.324219 C 4.269531 8.277344 4.28125 8.230469 4.289062 8.222656 C 4.292969 8.21875 4.304688 8.179688 4.3125 8.136719 C 4.320312 8.09375 4.332031 8.054688 4.339844 8.046875 C 4.34375 8.042969 4.351562 8.015625 4.355469 7.992188 C 4.359375 7.96875 4.367188 7.949219 4.375 7.949219 C 4.378906 7.949219 4.386719 7.925781 4.390625 7.902344 C 4.394531 7.875 4.40625 7.835938 4.414062 7.816406 C 4.433594 7.777344 4.464844 7.695312 4.488281 7.621094 C 4.492188 7.597656 4.503906 7.578125 4.507812 7.578125 C 4.515625 7.578125 4.519531 7.558594 4.527344 7.539062 C 4.53125 7.519531 4.542969 7.488281 4.550781 7.472656 C 4.570312 7.433594 4.628906 7.308594 4.640625 7.28125 C 4.660156 7.234375 4.71875 7.117188 4.726562 7.109375 C 4.730469 7.105469 4.742188 7.085938 4.75 7.0625 C 4.761719 7.035156 4.769531 7.015625 4.777344 7.015625 C 4.78125 7.015625 4.789062 7 4.792969 6.980469 C 4.796875 6.964844 4.804688 6.945312 4.808594 6.945312 C 4.8125 6.945312 4.824219 6.929688 4.835938 6.910156 C 4.84375 6.886719 4.855469 6.867188 4.859375 6.867188 C 4.867188 6.855469 4.90625 6.796875 4.921875 6.757812 C 4.929688 6.738281 4.941406 6.726562 4.945312 6.726562 C 4.949219 6.726562 4.960938 6.707031 4.96875 6.6875 C 4.980469 6.667969 4.992188 6.644531 5 6.636719 C 5.027344 6.605469 5.035156 6.589844 5.054688 6.558594 C 5.0625 6.539062 5.078125 6.515625 5.085938 6.507812 C 5.09375 6.496094 5.101562 6.488281 5.101562 6.480469 C 5.101562 6.476562 5.113281 6.460938 5.125 6.449219 C 5.136719 6.4375 5.152344 6.414062 5.164062 6.398438 C 5.175781 6.382812 5.191406 6.363281 5.199219 6.351562 C 5.210938 6.34375 5.226562 6.320312 5.234375 6.304688 C 5.246094 6.285156 5.257812 6.269531 5.261719 6.269531 C 5.269531 6.269531 5.273438 6.265625 5.273438 6.257812 C 5.273438 6.246094 5.28125 6.234375 5.292969 6.222656 C 5.304688 6.210938 5.339844 6.171875 5.371094 6.132812 C 5.398438 6.09375 5.429688 6.0625 5.433594 6.0625 C 5.4375 6.0625 5.441406 6.054688 5.441406 6.042969 C 5.441406 6.035156 5.453125 6.019531 5.464844 6.011719 C 5.476562 6.003906 5.5 5.980469 5.511719 5.960938 C 5.527344 5.941406 5.5625 5.90625 5.585938 5.878906 C 5.640625 5.816406 6.085938 5.386719 6.121094 5.363281 C 6.132812 5.351562 6.167969 5.324219 6.199219 5.296875 C 6.230469 5.273438 6.273438 5.234375 6.300781 5.214844 C 6.324219 5.195312 6.359375 5.167969 6.375 5.15625 C 6.425781 5.113281 6.429688 5.113281 6.496094 5.070312 C 6.527344 5.046875 6.566406 5.019531 6.582031 5.003906 C 6.597656 4.988281 6.613281 4.976562 6.617188 4.976562 C 6.621094 4.976562 6.660156 4.953125 6.699219 4.925781 C 6.742188 4.894531 6.78125 4.871094 6.789062 4.871094 C 6.796875 4.871094 6.804688 4.863281 6.808594 4.855469 C 6.8125 4.84375 6.824219 4.835938 6.832031 4.835938 C 6.839844 4.835938 6.863281 4.828125 6.878906 4.8125 C 6.890625 4.800781 6.914062 4.789062 6.921875 4.789062 C 6.929688 4.789062 6.9375 4.785156 6.9375 4.777344 C 6.9375 4.773438 6.957031 4.761719 6.976562 4.75 C 7.019531 4.730469 7.0625 4.707031 7.070312 4.695312 C 7.074219 4.691406 7.09375 4.683594 7.117188 4.671875 C 7.140625 4.664062 7.15625 4.652344 7.15625 4.648438 C 7.15625 4.644531 7.164062 4.640625 7.171875 4.640625 C 7.179688 4.640625 7.222656 4.617188 7.265625 4.59375 C 7.308594 4.570312 7.359375 4.546875 7.375 4.539062 C 7.390625 4.535156 7.410156 4.527344 7.414062 4.523438 C 7.421875 4.511719 7.621094 4.417969 7.65625 4.410156 C 7.675781 4.40625 7.691406 4.398438 7.691406 4.394531 C 7.691406 4.386719 7.695312 4.382812 7.703125 4.382812 C 7.710938 4.382812 7.738281 4.371094 7.769531 4.359375 C 7.796875 4.347656 7.835938 4.332031 7.855469 4.328125 C 7.875 4.324219 7.898438 4.3125 7.90625 4.304688 C 7.917969 4.296875 7.9375 4.289062 7.949219 4.289062 C 7.964844 4.289062 7.988281 4.28125 8.003906 4.273438 C 8.015625 4.265625 8.046875 4.253906 8.070312 4.25 C 8.097656 4.242188 8.117188 4.238281 8.117188 4.230469 C 8.117188 4.226562 8.144531 4.21875 8.179688 4.207031 C 8.214844 4.199219 8.25 4.1875 8.257812 4.183594 C 8.261719 4.179688 8.289062 4.171875 8.3125 4.167969 C 8.335938 4.164062 8.359375 4.15625 8.367188 4.148438 C 8.371094 4.144531 8.410156 4.132812 8.453125 4.125 C 8.496094 4.117188 8.53125 4.109375 8.53125 4.101562 C 8.53125 4.097656 8.578125 4.089844 8.632812 4.078125 C 8.691406 4.070312 8.734375 4.058594 8.734375 4.054688 C 8.734375 4.050781 8.765625 4.042969 8.804688 4.039062 C 8.839844 4.035156 8.871094 4.027344 8.875 4.019531 C 8.878906 4.015625 8.9375 4.003906 9.007812 3.996094 C 9.074219 3.988281 9.136719 3.980469 9.144531 3.972656 C 9.152344 3.96875 9.203125 3.960938 9.257812 3.957031 C 9.316406 3.953125 9.367188 3.945312 9.375 3.941406 C 9.417969 3.910156 10.417969 3.894531 10.773438 3.917969 M 12.292969 4.824219 C 12.175781 4.863281 12.144531 4.882812 12.074219 4.949219 C 11.988281 5.027344 11.957031 5.097656 11.945312 5.210938 L 11.9375 5.296875 L 10.117188 5.300781 L 8.300781 5.304688 L 8.296875 5.25 C 8.296875 5.152344 8.234375 4.988281 8.199219 4.988281 C 8.195312 4.988281 8.1875 4.980469 8.1875 4.972656 C 8.1875 4.964844 8.171875 4.945312 8.148438 4.929688 C 8.128906 4.914062 8.109375 4.898438 8.105469 4.894531 C 8.046875 4.824219 7.796875 4.78125 7.679688 4.820312 C 7.59375 4.847656 7.507812 4.886719 7.507812 4.898438 C 7.507812 4.902344 7.503906 4.90625 7.492188 4.90625 C 7.46875 4.90625 7.382812 5 7.351562 5.0625 L 7.324219 5.121094 L 7.328125 5.492188 C 7.332031 5.714844 7.339844 5.867188 7.347656 5.875 C 7.355469 5.886719 7.367188 5.929688 7.375 5.972656 C 7.382812 6.015625 7.398438 6.066406 7.40625 6.082031 C 7.417969 6.101562 7.425781 6.121094 7.425781 6.128906 C 7.425781 6.136719 7.429688 6.160156 7.441406 6.175781 C 7.449219 6.191406 7.484375 6.257812 7.515625 6.320312 C 7.597656 6.484375 7.605469 6.492188 7.644531 6.539062 C 7.664062 6.5625 7.679688 6.585938 7.679688 6.59375 C 7.679688 6.597656 7.6875 6.609375 7.699219 6.621094 C 7.707031 6.628906 7.742188 6.667969 7.773438 6.707031 C 7.804688 6.746094 7.835938 6.78125 7.84375 6.789062 C 7.855469 6.792969 7.863281 6.804688 7.863281 6.8125 C 7.863281 6.828125 8.117188 7.074219 8.136719 7.074219 C 8.144531 7.074219 8.15625 7.082031 8.160156 7.089844 C 8.175781 7.109375 8.304688 7.214844 8.316406 7.214844 C 8.320312 7.214844 8.335938 7.226562 8.351562 7.246094 C 8.367188 7.261719 8.382812 7.273438 8.386719 7.273438 C 8.394531 7.273438 8.421875 7.292969 8.457031 7.316406 C 8.613281 7.433594 8.621094 7.433594 8.78125 7.355469 C 8.847656 7.324219 8.90625 7.296875 8.910156 7.296875 C 8.914062 7.296875 8.949219 7.285156 8.984375 7.269531 C 9.019531 7.253906 9.074219 7.230469 9.105469 7.214844 C 9.140625 7.203125 9.179688 7.183594 9.191406 7.179688 C 9.21875 7.167969 9.304688 7.140625 9.367188 7.117188 C 9.390625 7.113281 9.414062 7.101562 9.417969 7.097656 C 9.421875 7.09375 9.453125 7.082031 9.492188 7.074219 C 9.53125 7.066406 9.566406 7.054688 9.570312 7.050781 C 9.574219 7.042969 9.589844 7.039062 9.605469 7.039062 C 9.640625 7.039062 9.644531 7.015625 9.613281 7.007812 C 9.597656 7.003906 9.585938 7 9.585938 6.992188 C 9.585938 6.988281 9.570312 6.980469 9.550781 6.976562 C 9.53125 6.972656 9.515625 6.964844 9.515625 6.960938 C 9.515625 6.957031 9.492188 6.945312 9.46875 6.9375 C 9.445312 6.925781 9.421875 6.917969 9.417969 6.914062 C 9.414062 6.910156 9.382812 6.890625 9.34375 6.871094 C 9.308594 6.855469 9.253906 6.828125 9.230469 6.8125 C 9.203125 6.796875 9.171875 6.78125 9.164062 6.777344 C 9.113281 6.753906 9.152344 6.738281 9.273438 6.738281 C 10.058594 6.734375 10.664062 6.710938 10.695312 6.679688 C 10.699219 6.671875 10.714844 6.664062 10.800781 6.617188 C 10.824219 6.605469 10.855469 6.585938 10.863281 6.578125 C 10.875 6.570312 10.886719 6.5625 10.890625 6.5625 C 10.902344 6.5625 10.90625 6.558594 11.023438 6.464844 C 11.066406 6.429688 11.109375 6.398438 11.113281 6.398438 C 11.121094 6.398438 11.140625 6.382812 11.160156 6.363281 C 11.179688 6.347656 11.21875 6.3125 11.246094 6.289062 L 11.296875 6.25 L 10.328125 6.25 C 9.128906 6.25 8.546875 6.230469 8.519531 6.195312 C 8.496094 6.167969 8.460938 6.113281 8.441406 6.070312 C 8.433594 6.050781 8.421875 6.039062 8.417969 6.039062 C 8.414062 6.039062 8.40625 6.019531 8.402344 5.996094 C 8.398438 5.972656 8.390625 5.953125 8.382812 5.949219 C 8.367188 5.941406 8.335938 5.820312 8.34375 5.800781 C 8.355469 5.773438 11.09375 5.75 11.714844 5.777344 L 11.898438 5.785156 L 11.894531 5.84375 C 11.890625 5.878906 11.878906 5.917969 11.867188 5.9375 C 11.859375 5.957031 11.832031 6.007812 11.8125 6.050781 C 11.789062 6.089844 11.765625 6.132812 11.757812 6.144531 C 11.75 6.152344 11.734375 6.175781 11.722656 6.195312 C 11.710938 6.214844 11.679688 6.257812 11.648438 6.292969 C 11.617188 6.324219 11.59375 6.355469 11.59375 6.359375 C 11.59375 6.367188 11.4375 6.515625 11.425781 6.515625 C 11.421875 6.515625 11.390625 6.542969 11.351562 6.574219 C 11.3125 6.609375 11.261719 6.648438 11.238281 6.664062 C 11.210938 6.679688 11.191406 6.699219 11.191406 6.703125 C 11.191406 6.710938 11.183594 6.714844 11.175781 6.714844 C 11.167969 6.714844 11.144531 6.726562 11.125 6.742188 C 11.101562 6.757812 11.078125 6.773438 11.070312 6.773438 C 11.0625 6.773438 11.058594 6.777344 11.058594 6.78125 C 11.058594 6.789062 11.046875 6.796875 11.035156 6.800781 C 11.023438 6.804688 10.988281 6.820312 10.953125 6.839844 C 10.824219 6.914062 10.542969 7.042969 10.464844 7.0625 C 10.4375 7.070312 10.410156 7.082031 10.40625 7.085938 C 10.402344 7.09375 10.378906 7.101562 10.351562 7.105469 C 10.324219 7.109375 10.300781 7.117188 10.296875 7.121094 C 10.292969 7.128906 10.269531 7.136719 10.242188 7.140625 C 10.210938 7.144531 10.175781 7.152344 10.160156 7.160156 C 10.128906 7.171875 10.058594 7.191406 9.914062 7.226562 C 9.886719 7.234375 9.847656 7.246094 9.835938 7.25 C 9.824219 7.253906 9.78125 7.265625 9.746094 7.273438 C 9.707031 7.28125 9.671875 7.292969 9.667969 7.296875 C 9.660156 7.300781 9.632812 7.308594 9.609375 7.316406 C 9.582031 7.320312 9.5625 7.328125 9.5625 7.332031 C 9.5625 7.335938 9.53125 7.347656 9.496094 7.355469 C 9.457031 7.363281 9.414062 7.375 9.394531 7.382812 C 9.316406 7.421875 9.273438 7.4375 9.246094 7.445312 C 9.226562 7.449219 9.210938 7.457031 9.210938 7.460938 C 9.210938 7.46875 9.199219 7.472656 9.1875 7.472656 C 9.164062 7.472656 8.773438 7.65625 8.773438 7.667969 C 8.773438 7.671875 8.753906 7.683594 8.726562 7.691406 C 8.703125 7.699219 8.660156 7.722656 8.636719 7.742188 C 8.613281 7.761719 8.589844 7.773438 8.582031 7.773438 C 8.574219 7.773438 8.542969 7.792969 8.515625 7.816406 C 8.484375 7.839844 8.457031 7.855469 8.453125 7.855469 C 8.445312 7.855469 8.296875 7.964844 8.1875 8.050781 C 8.105469 8.113281 7.765625 8.449219 7.765625 8.464844 C 7.765625 8.46875 7.753906 8.484375 7.746094 8.496094 C 7.691406 8.554688 7.601562 8.683594 7.585938 8.722656 C 7.582031 8.734375 7.574219 8.742188 7.570312 8.742188 C 7.5625 8.742188 7.558594 8.75 7.558594 8.757812 C 7.558594 8.765625 7.546875 8.785156 7.535156 8.804688 C 7.519531 8.820312 7.507812 8.847656 7.503906 8.867188 C 7.496094 8.882812 7.488281 8.902344 7.484375 8.90625 C 7.472656 8.914062 7.425781 9.023438 7.417969 9.066406 C 7.414062 9.085938 7.402344 9.117188 7.394531 9.136719 C 7.382812 9.152344 7.371094 9.195312 7.367188 9.230469 C 7.363281 9.265625 7.355469 9.304688 7.347656 9.3125 C 7.328125 9.335938 7.328125 9.894531 7.347656 9.933594 C 7.355469 9.949219 7.367188 10 7.375 10.046875 C 7.382812 10.097656 7.394531 10.140625 7.398438 10.148438 C 7.40625 10.152344 7.414062 10.175781 7.417969 10.199219 C 7.421875 10.222656 7.433594 10.253906 7.441406 10.269531 C 7.480469 10.339844 7.519531 10.433594 7.519531 10.445312 C 7.519531 10.449219 7.527344 10.457031 7.53125 10.457031 C 7.535156 10.457031 7.546875 10.46875 7.554688 10.488281 C 7.5625 10.503906 7.582031 10.539062 7.597656 10.566406 C 7.617188 10.59375 7.632812 10.621094 7.636719 10.628906 C 7.644531 10.640625 7.65625 10.652344 7.664062 10.65625 C 7.671875 10.664062 7.679688 10.671875 7.679688 10.679688 C 7.679688 10.6875 7.703125 10.714844 7.726562 10.746094 C 7.753906 10.777344 7.777344 10.808594 7.777344 10.8125 C 7.777344 10.816406 7.796875 10.839844 7.816406 10.863281 C 7.839844 10.886719 7.898438 10.945312 7.945312 10.996094 C 7.996094 11.042969 8.039062 11.085938 8.046875 11.085938 C 8.050781 11.085938 8.082031 11.113281 8.113281 11.144531 C 8.144531 11.175781 8.175781 11.203125 8.1875 11.203125 C 8.195312 11.203125 8.203125 11.207031 8.210938 11.214844 C 8.234375 11.25 8.511719 11.457031 8.535156 11.457031 C 8.539062 11.457031 8.550781 11.464844 8.558594 11.46875 C 8.632812 11.53125 8.613281 11.53125 8.804688 11.441406 C 9 11.347656 9.097656 11.304688 9.164062 11.285156 C 9.1875 11.277344 9.214844 11.265625 9.230469 11.257812 C 9.320312 11.222656 9.34375 11.214844 9.378906 11.203125 C 9.402344 11.195312 9.433594 11.183594 9.449219 11.175781 C 9.460938 11.171875 9.5 11.160156 9.53125 11.15625 C 9.652344 11.128906 9.660156 11.113281 9.570312 11.074219 C 9.484375 11.035156 9.480469 11.035156 9.390625 10.988281 C 9.28125 10.929688 9.253906 10.917969 9.246094 10.910156 C 9.242188 10.90625 9.230469 10.898438 9.214844 10.890625 C 9.203125 10.882812 9.191406 10.867188 9.1875 10.851562 L 9.183594 10.820312 L 9.570312 10.8125 C 9.78125 10.808594 10.105469 10.804688 10.289062 10.804688 L 10.621094 10.804688 L 10.699219 10.765625 C 10.742188 10.746094 10.800781 10.710938 10.832031 10.691406 C 10.863281 10.671875 10.890625 10.652344 10.894531 10.652344 C 10.898438 10.652344 10.925781 10.636719 10.953125 10.613281 C 10.984375 10.589844 11.007812 10.574219 11.015625 10.574219 C 11.019531 10.574219 11.035156 10.5625 11.050781 10.550781 C 11.066406 10.535156 11.113281 10.496094 11.160156 10.460938 C 11.28125 10.363281 11.292969 10.351562 11.273438 10.34375 C 11.265625 10.34375 10.652344 10.339844 9.910156 10.335938 L 8.5625 10.332031 L 8.523438 10.289062 C 8.441406 10.191406 8.316406 9.917969 8.347656 9.894531 C 8.378906 9.863281 11.675781 9.851562 11.851562 9.878906 L 11.898438 9.886719 L 11.890625 9.941406 C 11.886719 9.972656 11.878906 10.011719 11.867188 10.03125 C 11.855469 10.050781 11.835938 10.09375 11.816406 10.128906 C 11.785156 10.195312 11.765625 10.226562 11.746094 10.253906 C 11.738281 10.261719 11.710938 10.296875 11.683594 10.335938 C 11.632812 10.40625 11.328125 10.710938 11.308594 10.710938 C 11.300781 10.710938 11.269531 10.734375 11.234375 10.757812 C 11.195312 10.785156 11.164062 10.804688 11.160156 10.804688 C 11.15625 10.804688 11.136719 10.816406 11.113281 10.832031 C 11.070312 10.859375 11.0625 10.867188 10.945312 10.933594 C 10.902344 10.960938 10.859375 10.980469 10.851562 10.980469 C 10.84375 10.980469 10.839844 10.984375 10.839844 10.992188 C 10.839844 10.996094 10.820312 11.007812 10.796875 11.015625 C 10.773438 11.023438 10.753906 11.035156 10.753906 11.039062 C 10.753906 11.046875 10.746094 11.050781 10.734375 11.050781 C 10.714844 11.050781 10.636719 11.082031 10.546875 11.125 C 10.53125 11.132812 10.496094 11.144531 10.472656 11.148438 C 10.445312 11.152344 10.421875 11.164062 10.417969 11.167969 C 10.414062 11.171875 10.402344 11.179688 10.390625 11.179688 C 10.378906 11.179688 10.355469 11.1875 10.339844 11.195312 C 10.324219 11.203125 10.277344 11.21875 10.242188 11.226562 C 10.207031 11.234375 10.164062 11.246094 10.148438 11.253906 C 10.128906 11.265625 10.101562 11.273438 10.085938 11.273438 C 10.070312 11.273438 10.039062 11.28125 10.019531 11.289062 C 10 11.300781 9.972656 11.308594 9.960938 11.308594 C 9.945312 11.308594 9.917969 11.3125 9.902344 11.324219 C 9.886719 11.332031 9.851562 11.339844 9.828125 11.34375 C 9.753906 11.359375 9.511719 11.429688 9.449219 11.460938 C 9.433594 11.464844 9.390625 11.480469 9.351562 11.496094 C 9.308594 11.507812 9.25 11.53125 9.214844 11.546875 C 9.175781 11.5625 9.144531 11.574219 9.140625 11.574219 C 9.125 11.574219 8.792969 11.738281 8.785156 11.746094 C 8.78125 11.753906 8.761719 11.761719 8.742188 11.769531 C 8.722656 11.777344 8.679688 11.804688 8.644531 11.824219 C 8.609375 11.847656 8.578125 11.867188 8.574219 11.867188 C 8.570312 11.867188 8.558594 11.871094 8.550781 11.878906 C 8.5 11.917969 8.410156 11.984375 8.402344 11.984375 C 8.398438 11.984375 8.355469 12.011719 8.304688 12.050781 C 8.257812 12.089844 8.207031 12.125 8.195312 12.136719 C 8.132812 12.179688 7.8125 12.492188 7.8125 12.503906 C 7.8125 12.511719 7.808594 12.519531 7.800781 12.519531 C 7.785156 12.519531 7.625 12.730469 7.59375 12.796875 C 7.585938 12.8125 7.570312 12.839844 7.554688 12.859375 C 7.539062 12.882812 7.515625 12.917969 7.507812 12.941406 C 7.5 12.964844 7.480469 13.007812 7.46875 13.035156 C 7.453125 13.0625 7.433594 13.105469 7.425781 13.132812 C 7.417969 13.15625 7.40625 13.1875 7.402344 13.199219 C 7.382812 13.242188 7.363281 13.320312 7.363281 13.347656 C 7.363281 13.363281 7.355469 13.382812 7.347656 13.390625 C 7.335938 13.402344 7.332031 13.5 7.332031 13.796875 L 7.332031 14.191406 L 7.363281 14.230469 C 7.421875 14.3125 7.484375 14.363281 7.558594 14.398438 C 7.574219 14.402344 7.601562 14.417969 7.617188 14.421875 C 7.65625 14.441406 7.945312 14.441406 7.984375 14.421875 C 8 14.414062 8.03125 14.402344 8.050781 14.394531 C 8.089844 14.382812 8.195312 14.292969 8.234375 14.238281 C 8.257812 14.203125 8.289062 14.101562 8.304688 14.007812 L 8.3125 13.964844 L 11.933594 13.964844 L 11.9375 14.003906 C 11.941406 14.023438 11.945312 14.0625 11.949219 14.085938 C 11.957031 14.136719 11.996094 14.230469 12.007812 14.230469 C 12.015625 14.234375 12.015625 14.238281 12.015625 14.25 C 12.015625 14.269531 12.15625 14.394531 12.175781 14.394531 C 12.1875 14.394531 12.210938 14.40625 12.230469 14.414062 C 12.292969 14.449219 12.589844 14.445312 12.667969 14.40625 C 12.753906 14.367188 12.894531 14.234375 12.894531 14.1875 C 12.894531 14.171875 12.898438 14.148438 12.90625 14.144531 C 12.941406 14.109375 12.898438 13.3125 12.859375 13.261719 C 12.851562 13.253906 12.839844 13.222656 12.832031 13.1875 C 12.824219 13.15625 12.8125 13.125 12.808594 13.121094 C 12.804688 13.113281 12.792969 13.089844 12.789062 13.070312 C 12.785156 13.050781 12.777344 13.03125 12.773438 13.03125 C 12.765625 13.03125 12.757812 13.011719 12.746094 12.984375 C 12.738281 12.960938 12.726562 12.9375 12.722656 12.9375 C 12.71875 12.9375 12.710938 12.925781 12.703125 12.90625 C 12.699219 12.890625 12.691406 12.871094 12.6875 12.867188 C 12.683594 12.867188 12.667969 12.835938 12.652344 12.804688 C 12.632812 12.773438 12.601562 12.726562 12.582031 12.699219 C 12.558594 12.671875 12.539062 12.644531 12.539062 12.640625 C 12.539062 12.589844 11.984375 12.054688 11.902344 12.03125 C 11.898438 12.027344 11.863281 12.003906 11.832031 11.980469 C 11.804688 11.957031 11.773438 11.9375 11.765625 11.9375 C 11.757812 11.9375 11.75 11.929688 11.75 11.925781 C 11.75 11.917969 11.738281 11.90625 11.722656 11.898438 C 11.707031 11.894531 11.675781 11.875 11.648438 11.863281 L 11.597656 11.835938 L 11.445312 11.910156 C 11.292969 11.984375 11.1875 12.03125 11.171875 12.03125 C 11.167969 12.03125 11.132812 12.042969 11.027344 12.085938 C 11.015625 12.09375 10.988281 12.101562 10.972656 12.105469 C 10.957031 12.109375 10.925781 12.121094 10.90625 12.128906 C 10.886719 12.136719 10.824219 12.15625 10.765625 12.175781 C 10.585938 12.230469 10.574219 12.242188 10.675781 12.28125 C 10.707031 12.292969 10.738281 12.304688 10.742188 12.308594 C 10.746094 12.3125 10.765625 12.324219 10.789062 12.332031 C 10.8125 12.339844 10.847656 12.359375 10.867188 12.371094 C 10.882812 12.382812 10.902344 12.390625 10.910156 12.390625 C 10.917969 12.390625 10.925781 12.394531 10.925781 12.402344 C 10.925781 12.410156 10.929688 12.414062 10.9375 12.414062 C 10.964844 12.414062 11.070312 12.488281 11.070312 12.507812 C 11.070312 12.535156 10.921875 12.542969 10.207031 12.542969 C 9.628906 12.542969 9.605469 12.542969 9.574219 12.566406 C 9.558594 12.578125 9.539062 12.589844 9.53125 12.589844 C 9.519531 12.589844 9.515625 12.59375 9.515625 12.597656 C 9.515625 12.601562 9.5 12.613281 9.480469 12.621094 C 9.417969 12.648438 9.375 12.675781 9.335938 12.707031 C 9.3125 12.726562 9.289062 12.742188 9.28125 12.742188 C 9.277344 12.742188 9.234375 12.769531 9.191406 12.804688 C 9.148438 12.839844 9.109375 12.867188 9.105469 12.867188 C 9.101562 12.867188 9.078125 12.886719 9.058594 12.90625 C 9.035156 12.925781 9.003906 12.953125 8.988281 12.964844 C 8.96875 12.976562 8.953125 12.992188 8.953125 12.996094 C 8.953125 13 9.570312 13.007812 10.320312 13.011719 C 11.800781 13.023438 11.710938 13.019531 11.734375 13.082031 C 11.738281 13.097656 11.753906 13.125 11.769531 13.140625 C 11.792969 13.175781 11.8125 13.210938 11.871094 13.335938 C 11.886719 13.367188 11.894531 13.40625 11.894531 13.425781 L 11.894531 13.457031 L 11.777344 13.472656 C 11.605469 13.492188 8.546875 13.492188 8.425781 13.46875 C 8.34375 13.457031 8.339844 13.457031 8.34375 13.421875 C 8.351562 13.371094 8.441406 13.164062 8.46875 13.136719 C 8.472656 13.132812 8.492188 13.105469 8.511719 13.078125 C 8.53125 13.050781 8.550781 13.019531 8.558594 13.015625 C 8.625 12.921875 8.917969 12.640625 8.960938 12.625 C 8.964844 12.621094 8.976562 12.617188 8.980469 12.613281 C 8.988281 12.601562 9.125 12.507812 9.128906 12.507812 C 9.132812 12.507812 9.160156 12.492188 9.191406 12.472656 C 9.257812 12.429688 9.371094 12.367188 9.464844 12.324219 C 9.503906 12.308594 9.5625 12.28125 9.59375 12.265625 C 9.628906 12.25 9.664062 12.238281 9.671875 12.238281 C 9.675781 12.238281 9.699219 12.230469 9.71875 12.222656 C 9.773438 12.195312 9.808594 12.183594 9.867188 12.167969 C 9.898438 12.160156 9.925781 12.148438 9.933594 12.144531 C 9.941406 12.140625 9.972656 12.132812 10.007812 12.121094 C 10.042969 12.113281 10.078125 12.105469 10.078125 12.097656 C 10.082031 12.09375 10.101562 12.085938 10.121094 12.085938 C 10.136719 12.085938 10.167969 12.082031 10.183594 12.070312 C 10.203125 12.0625 10.25 12.046875 10.289062 12.039062 C 10.328125 12.03125 10.363281 12.023438 10.371094 12.019531 C 10.378906 12.011719 10.40625 12.003906 10.433594 12 C 10.460938 11.996094 10.488281 11.988281 10.492188 11.980469 C 10.496094 11.976562 10.511719 11.972656 10.523438 11.972656 C 10.550781 11.972656 10.75 11.910156 10.808594 11.882812 C 10.832031 11.875 10.855469 11.867188 10.867188 11.867188 C 10.878906 11.867188 10.890625 11.863281 10.890625 11.855469 C 10.894531 11.851562 10.914062 11.84375 10.933594 11.835938 C 11.023438 11.816406 11.417969 11.632812 11.582031 11.535156 C 11.679688 11.476562 11.730469 11.441406 11.738281 11.433594 C 11.738281 11.425781 11.746094 11.421875 11.753906 11.421875 C 11.769531 11.421875 11.921875 11.316406 11.921875 11.304688 C 11.921875 11.300781 11.925781 11.296875 11.933594 11.296875 C 11.949219 11.296875 12.113281 11.160156 12.132812 11.136719 C 12.136719 11.125 12.144531 11.121094 12.152344 11.121094 C 12.171875 11.121094 12.347656 10.953125 12.347656 10.9375 C 12.347656 10.929688 12.351562 10.917969 12.363281 10.914062 C 12.398438 10.894531 12.589844 10.65625 12.628906 10.582031 C 12.652344 10.539062 12.679688 10.496094 12.6875 10.492188 C 12.691406 10.484375 12.734375 10.40625 12.761719 10.339844 C 12.816406 10.222656 12.832031 10.1875 12.839844 10.152344 C 12.84375 10.128906 12.851562 10.105469 12.855469 10.101562 C 12.863281 10.09375 12.871094 10.046875 12.878906 9.996094 C 12.886719 9.945312 12.898438 9.894531 12.90625 9.882812 C 12.921875 9.855469 12.917969 9.449219 12.90625 9.402344 C 12.898438 9.382812 12.886719 9.324219 12.882812 9.277344 C 12.875 9.226562 12.863281 9.175781 12.859375 9.164062 C 12.851562 9.152344 12.835938 9.109375 12.820312 9.0625 C 12.792969 8.972656 12.652344 8.695312 12.636719 8.695312 C 12.628906 8.695312 12.625 8.691406 12.625 8.683594 C 12.625 8.675781 12.613281 8.652344 12.59375 8.628906 C 12.578125 8.609375 12.566406 8.589844 12.566406 8.585938 C 12.566406 8.582031 12.558594 8.570312 12.550781 8.5625 C 12.539062 8.554688 12.511719 8.515625 12.480469 8.476562 C 12.449219 8.4375 12.421875 8.402344 12.417969 8.402344 C 12.410156 8.402344 12.40625 8.398438 12.40625 8.390625 C 12.40625 8.371094 12.089844 8.066406 12.070312 8.066406 C 12.0625 8.066406 12.050781 8.058594 12.046875 8.050781 C 12.03125 8.03125 11.914062 7.9375 11.898438 7.9375 C 11.894531 7.9375 11.882812 7.925781 11.875 7.914062 C 11.867188 7.902344 11.851562 7.890625 11.839844 7.890625 C 11.832031 7.890625 11.824219 7.886719 11.824219 7.882812 C 11.824219 7.878906 11.796875 7.859375 11.761719 7.839844 C 11.730469 7.820312 11.703125 7.800781 11.703125 7.796875 C 11.703125 7.789062 11.695312 7.785156 11.6875 7.785156 C 11.679688 7.785156 11.65625 7.777344 11.644531 7.765625 C 11.613281 7.742188 11.613281 7.742188 11.566406 7.765625 C 11.542969 7.777344 11.515625 7.785156 11.507812 7.785156 C 11.5 7.785156 11.496094 7.789062 11.496094 7.796875 C 11.496094 7.800781 11.472656 7.8125 11.449219 7.820312 C 11.425781 7.828125 11.367188 7.851562 11.320312 7.875 C 11.207031 7.921875 11.160156 7.941406 11.082031 7.972656 C 11.046875 7.988281 11.003906 8.003906 10.992188 8.007812 C 10.976562 8.015625 10.945312 8.023438 10.917969 8.03125 C 10.890625 8.039062 10.863281 8.050781 10.859375 8.058594 C 10.851562 8.0625 10.839844 8.066406 10.828125 8.066406 C 10.820312 8.066406 10.796875 8.074219 10.773438 8.082031 C 10.753906 8.09375 10.707031 8.105469 10.671875 8.117188 C 10.636719 8.125 10.605469 8.136719 10.605469 8.140625 C 10.605469 8.152344 10.832031 8.273438 10.984375 8.339844 C 10.996094 8.347656 11.007812 8.351562 11.007812 8.355469 C 11.011719 8.359375 11.03125 8.371094 11.050781 8.382812 C 11.148438 8.4375 11.003906 8.445312 9.996094 8.449219 L 9.625 8.449219 L 9.558594 8.484375 C 9.476562 8.527344 9.441406 8.546875 9.421875 8.558594 C 9.386719 8.582031 9.316406 8.625 9.3125 8.625 C 9.304688 8.625 9.1875 8.714844 9.132812 8.757812 C 9.121094 8.769531 9.109375 8.777344 9.105469 8.777344 C 9.082031 8.777344 8.964844 8.902344 8.972656 8.914062 C 8.976562 8.925781 9.367188 8.929688 10.34375 8.929688 L 11.707031 8.929688 L 11.734375 8.980469 C 11.746094 9.003906 11.78125 9.074219 11.808594 9.125 C 11.839844 9.179688 11.867188 9.234375 11.875 9.246094 C 11.878906 9.257812 11.886719 9.292969 11.890625 9.324219 L 11.898438 9.378906 L 11.707031 9.390625 C 11.457031 9.402344 8.871094 9.402344 8.574219 9.390625 L 8.34375 9.378906 L 8.351562 9.328125 C 8.359375 9.253906 8.421875 9.117188 8.492188 9.019531 C 8.511719 8.988281 8.53125 8.960938 8.53125 8.957031 C 8.53125 8.9375 8.8125 8.636719 8.828125 8.636719 C 8.832031 8.636719 8.871094 8.609375 8.910156 8.574219 C 8.953125 8.539062 8.992188 8.507812 9 8.507812 C 9.007812 8.507812 9.019531 8.503906 9.023438 8.496094 C 9.03125 8.488281 9.058594 8.464844 9.089844 8.445312 C 9.117188 8.425781 9.144531 8.40625 9.148438 8.402344 C 9.152344 8.398438 9.164062 8.394531 9.175781 8.390625 C 9.183594 8.382812 9.21875 8.367188 9.253906 8.347656 C 9.285156 8.328125 9.367188 8.285156 9.429688 8.257812 C 9.492188 8.226562 9.546875 8.199219 9.550781 8.191406 C 9.554688 8.1875 9.574219 8.179688 9.59375 8.175781 C 9.613281 8.171875 9.644531 8.160156 9.660156 8.152344 C 9.675781 8.144531 9.730469 8.125 9.78125 8.105469 C 9.832031 8.089844 9.878906 8.070312 9.882812 8.066406 C 9.890625 8.0625 9.925781 8.050781 9.960938 8.042969 C 9.996094 8.035156 10.027344 8.023438 10.03125 8.019531 C 10.035156 8.011719 10.050781 8.007812 10.070312 8.007812 C 10.085938 8.007812 10.117188 8 10.136719 7.992188 C 10.160156 7.980469 10.207031 7.96875 10.25 7.960938 C 10.289062 7.957031 10.328125 7.945312 10.332031 7.9375 C 10.339844 7.929688 10.355469 7.925781 10.371094 7.925781 C 10.394531 7.925781 10.578125 7.875 10.625 7.855469 C 10.640625 7.851562 10.695312 7.832031 10.753906 7.8125 C 10.808594 7.796875 10.859375 7.777344 10.863281 7.773438 C 10.867188 7.769531 10.886719 7.761719 10.90625 7.757812 C 10.925781 7.753906 10.953125 7.742188 10.964844 7.734375 C 10.980469 7.726562 11.015625 7.714844 11.042969 7.707031 C 11.070312 7.695312 11.09375 7.6875 11.09375 7.679688 C 11.09375 7.675781 11.113281 7.667969 11.136719 7.664062 C 11.160156 7.660156 11.179688 7.652344 11.179688 7.644531 C 11.179688 7.640625 11.1875 7.636719 11.195312 7.636719 C 11.210938 7.636719 11.339844 7.578125 11.347656 7.5625 C 11.351562 7.5625 11.375 7.550781 11.398438 7.542969 C 11.421875 7.53125 11.460938 7.511719 11.488281 7.496094 C 11.515625 7.480469 11.550781 7.460938 11.5625 7.449219 C 11.574219 7.441406 11.601562 7.429688 11.617188 7.421875 C 11.691406 7.386719 11.898438 7.246094 11.90625 7.222656 C 11.910156 7.21875 11.917969 7.214844 11.925781 7.214844 C 11.9375 7.214844 11.953125 7.203125 11.960938 7.191406 C 11.96875 7.179688 11.980469 7.167969 11.984375 7.167969 C 12.023438 7.167969 12.515625 6.6875 12.515625 6.648438 C 12.515625 6.644531 12.535156 6.621094 12.554688 6.59375 C 12.597656 6.542969 12.652344 6.457031 12.691406 6.382812 C 12.707031 6.355469 12.722656 6.332031 12.726562 6.332031 C 12.730469 6.328125 12.734375 6.324219 12.734375 6.316406 C 12.734375 6.3125 12.75 6.277344 12.765625 6.238281 C 12.78125 6.203125 12.804688 6.15625 12.8125 6.136719 C 12.824219 6.117188 12.832031 6.082031 12.839844 6.0625 C 12.84375 6.039062 12.851562 6.015625 12.855469 6.007812 C 12.886719 5.96875 12.90625 5.773438 12.914062 5.421875 L 12.917969 5.125 L 12.886719 5.066406 C 12.835938 4.960938 12.691406 4.851562 12.578125 4.832031 C 12.558594 4.824219 12.535156 4.816406 12.535156 4.8125 C 12.519531 4.792969 12.355469 4.800781 12.292969 4.824219 "/>
</g>
<g clip-path="url(#clip2)" clip-rule="nonzero">
<path style=" stroke:none;fill-rule:evenodd;fill:rgb(0%,0%,0%);fill-opacity:1;" d="M 1.734375 10.796875 L 1.601562 9.640625 L 1.8125 9.617188 L 1.867188 10.0625 L 3.160156 9.914062 L 3.191406 10.179688 L 1.894531 10.328125 L 1.949219 10.773438 Z M 1.734375 10.796875 "/>
</g>
<g clip-path="url(#clip3)" clip-rule="nonzero">
<path style=" stroke:none;fill-rule:evenodd;fill:rgb(0%,0%,0%);fill-opacity:1;" d="M 1.582031 9.160156 L 1.605469 8.914062 L 2.257812 8.976562 C 2.128906 8.867188 2.074219 8.746094 2.085938 8.613281 C 2.09375 8.515625 2.132812 8.441406 2.203125 8.390625 C 2.265625 8.347656 2.339844 8.328125 2.433594 8.335938 L 3.207031 8.410156 L 3.183594 8.660156 L 2.480469 8.59375 C 2.363281 8.582031 2.296875 8.628906 2.289062 8.726562 C 2.28125 8.773438 2.296875 8.820312 2.332031 8.871094 C 2.359375 8.917969 2.398438 8.957031 2.449219 8.992188 L 3.144531 9.058594 L 3.121094 9.304688 Z M 1.582031 9.160156 "/>
</g>
<path style=" stroke:none;fill-rule:evenodd;fill:rgb(0%,0%,0%);fill-opacity:1;" d="M 2.492188 7.484375 C 2.46875 7.558594 2.480469 7.625 2.523438 7.683594 C 2.558594 7.730469 2.617188 7.769531 2.691406 7.800781 L 2.832031 7.339844 C 2.648438 7.296875 2.535156 7.34375 2.492188 7.484375 Z M 2.328125 7.4375 C 2.371094 7.292969 2.460938 7.195312 2.589844 7.140625 C 2.710938 7.09375 2.847656 7.09375 3.007812 7.140625 L 3.054688 7.15625 L 2.847656 7.851562 C 2.953125 7.878906 3.042969 7.878906 3.117188 7.847656 C 3.179688 7.820312 3.226562 7.765625 3.25 7.6875 C 3.28125 7.578125 3.238281 7.484375 3.117188 7.414062 L 3.246094 7.21875 C 3.421875 7.339844 3.480469 7.515625 3.414062 7.742188 C 3.363281 7.90625 3.273438 8.011719 3.140625 8.066406 C 3.027344 8.113281 2.890625 8.113281 2.734375 8.066406 C 2.554688 8.011719 2.429688 7.921875 2.359375 7.796875 C 2.300781 7.6875 2.289062 7.566406 2.328125 7.4375 Z M 2.328125 7.4375 "/>
<path style=" stroke:none;fill-rule:evenodd;fill:rgb(0%,0%,0%);fill-opacity:1;" d="M 2.863281 5.28125 C 2.953125 5.140625 3.0625 5.054688 3.199219 5.019531 C 3.3125 4.992188 3.433594 5.003906 3.566406 5.050781 L 3.476562 5.300781 C 3.277344 5.214844 3.128906 5.242188 3.03125 5.390625 C 2.964844 5.492188 2.957031 5.605469 3.011719 5.722656 C 3.0625 5.828125 3.160156 5.933594 3.308594 6.027344 C 3.476562 6.136719 3.625 6.1875 3.753906 6.179688 C 3.863281 6.167969 3.945312 6.121094 4.003906 6.03125 C 4.105469 5.878906 4.074219 5.726562 3.917969 5.574219 L 4.121094 5.40625 C 4.328125 5.636719 4.347656 5.882812 4.175781 6.144531 C 4.054688 6.324219 3.898438 6.421875 3.707031 6.433594 C 3.53125 6.445312 3.347656 6.390625 3.15625 6.265625 C 2.9375 6.117188 2.804688 5.949219 2.761719 5.757812 C 2.726562 5.59375 2.757812 5.433594 2.863281 5.28125 Z M 2.863281 5.28125 "/>
<path style=" stroke:none;fill-rule:evenodd;fill:rgb(0%,0%,0%);fill-opacity:1;" d="M 4.632812 4.730469 C 4.578125 4.792969 4.527344 4.859375 4.484375 4.929688 C 4.421875 5.035156 4.425781 5.117188 4.492188 5.183594 C 4.570312 5.257812 4.648438 5.257812 4.726562 5.175781 C 4.800781 5.097656 4.816406 5 4.777344 4.871094 Z M 4.097656 4.460938 C 4.292969 4.261719 4.472656 4.246094 4.644531 4.410156 L 4.949219 4.707031 C 5.023438 4.78125 5.105469 4.847656 5.1875 4.917969 L 5.03125 5.078125 C 4.996094 5.054688 4.960938 5.027344 4.917969 4.992188 C 4.941406 5.125 4.902344 5.246094 4.800781 5.351562 C 4.726562 5.425781 4.644531 5.464844 4.554688 5.460938 C 4.476562 5.460938 4.40625 5.429688 4.34375 5.367188 C 4.203125 5.230469 4.203125 5.066406 4.332031 4.867188 C 4.382812 4.792969 4.445312 4.714844 4.523438 4.625 L 4.480469 4.582031 C 4.429688 4.535156 4.382812 4.511719 4.335938 4.515625 C 4.296875 4.515625 4.257812 4.539062 4.214844 4.585938 C 4.175781 4.625 4.15625 4.671875 4.15625 4.722656 C 4.15625 4.769531 4.171875 4.816406 4.207031 4.863281 L 4 4.984375 C 3.898438 4.808594 3.929688 4.632812 4.097656 4.460938 Z M 4.097656 4.460938 "/>
<path style=" stroke:none;fill-rule:evenodd;fill:rgb(0%,0%,0%);fill-opacity:1;" d="M 5.203125 3.519531 C 5.285156 3.460938 5.363281 3.441406 5.445312 3.460938 C 5.523438 3.476562 5.585938 3.523438 5.644531 3.597656 L 6.101562 4.222656 L 5.898438 4.371094 L 5.480469 3.800781 C 5.410156 3.703125 5.332031 3.6875 5.253906 3.746094 C 5.214844 3.773438 5.1875 3.8125 5.171875 3.871094 C 5.15625 3.921875 5.152344 3.980469 5.160156 4.039062 L 5.574219 4.605469 L 5.375 4.753906 L 4.742188 3.886719 L 4.933594 3.746094 L 5.046875 3.898438 C 5.042969 3.8125 5.054688 3.738281 5.085938 3.667969 C 5.113281 3.605469 5.152344 3.554688 5.203125 3.519531 Z M 5.203125 3.519531 "/>
<path style=" stroke:none;fill-rule:evenodd;fill:rgb(0%,0%,0%);fill-opacity:1;" d="M 6.207031 2.917969 C 6.316406 2.859375 6.417969 2.84375 6.519531 2.867188 C 6.605469 2.890625 6.683594 2.941406 6.75 3.023438 L 6.5625 3.179688 C 6.472656 3.0625 6.386719 3.027344 6.292969 3.074219 C 6.148438 3.148438 6.136719 3.296875 6.253906 3.523438 C 6.371094 3.75 6.5 3.828125 6.644531 3.753906 C 6.746094 3.703125 6.769531 3.605469 6.722656 3.460938 L 6.957031 3.410156 C 6.984375 3.527344 6.976562 3.632812 6.925781 3.722656 C 6.886719 3.804688 6.816406 3.867188 6.722656 3.917969 C 6.578125 3.992188 6.441406 4 6.3125 3.9375 C 6.199219 3.886719 6.105469 3.789062 6.03125 3.640625 C 5.945312 3.476562 5.925781 3.324219 5.964844 3.191406 C 6 3.070312 6.082031 2.980469 6.207031 2.917969 Z M 6.207031 2.917969 "/>
<path style=" stroke:none;fill-rule:evenodd;fill:rgb(0%,0%,0%);fill-opacity:1;" d="M 7.367188 2.609375 C 7.292969 2.636719 7.242188 2.683594 7.222656 2.75 C 7.203125 2.808594 7.203125 2.878906 7.226562 2.957031 L 7.679688 2.800781 C 7.609375 2.625 7.503906 2.5625 7.367188 2.609375 Z M 7.308594 2.449219 C 7.449219 2.402344 7.582031 2.414062 7.699219 2.488281 C 7.808594 2.558594 7.890625 2.671875 7.945312 2.828125 L 7.960938 2.875 L 7.273438 3.109375 C 7.3125 3.214844 7.363281 3.289062 7.433594 3.328125 C 7.492188 3.363281 7.5625 3.371094 7.640625 3.34375 C 7.75 3.304688 7.796875 3.21875 7.789062 3.078125 L 8.019531 3.066406 C 8.023438 3.285156 7.914062 3.429688 7.691406 3.507812 C 7.53125 3.5625 7.390625 3.550781 7.269531 3.476562 C 7.164062 3.410156 7.085938 3.300781 7.03125 3.144531 C 6.972656 2.96875 6.972656 2.816406 7.035156 2.683594 C 7.089844 2.574219 7.179688 2.492188 7.308594 2.449219 Z M 7.308594 2.449219 "/>
<path style=" stroke:none;fill-rule:evenodd;fill:rgb(0%,0%,0%);fill-opacity:1;" d="M 8.652344 2.097656 L 8.683594 2.328125 C 8.550781 2.355469 8.46875 2.464844 8.441406 2.65625 L 8.566406 3.238281 L 8.328125 3.289062 L 8.105469 2.238281 L 8.332031 2.191406 L 8.386719 2.449219 C 8.414062 2.246094 8.503906 2.128906 8.652344 2.097656 Z M 8.652344 2.097656 "/>
<g clip-path="url(#clip4)" clip-rule="nonzero">
<path style=" stroke:none;fill-rule:evenodd;fill:rgb(0%,0%,0%);fill-opacity:1;" d="M 9.585938 1.558594 L 10.585938 1.542969 L 10.589844 1.753906 L 9.851562 1.765625 L 9.859375 2.164062 L 10.414062 2.15625 L 10.417969 2.363281 L 9.863281 2.375 L 9.871094 2.863281 L 10.625 2.851562 L 10.628906 3.058594 L 9.609375 3.078125 Z M 9.585938 1.558594 "/>
</g>
<path style=" stroke:none;fill-rule:evenodd;fill:rgb(0%,0%,0%);fill-opacity:1;" d="M 10.832031 2.003906 L 11.09375 2.039062 L 11.148438 2.496094 C 11.152344 2.554688 11.164062 2.632812 11.171875 2.722656 C 11.179688 2.820312 11.1875 2.886719 11.191406 2.921875 L 11.214844 2.925781 C 11.230469 2.886719 11.257812 2.8125 11.300781 2.710938 C 11.328125 2.632812 11.355469 2.570312 11.375 2.519531 L 11.546875 2.09375 L 11.785156 2.125 L 11.316406 3.148438 L 11.027344 3.113281 Z M 10.832031 2.003906 "/>
<path style=" stroke:none;fill-rule:evenodd;fill:rgb(0%,0%,0%);fill-opacity:1;" d="M 12.457031 2.449219 C 12.304688 2.410156 12.195312 2.511719 12.128906 2.757812 C 12.0625 3.007812 12.105469 3.152344 12.253906 3.191406 C 12.40625 3.234375 12.515625 3.128906 12.582031 2.878906 C 12.648438 2.632812 12.605469 2.488281 12.457031 2.449219 Z M 12.503906 2.277344 C 12.65625 2.320312 12.757812 2.40625 12.816406 2.539062 C 12.863281 2.652344 12.867188 2.789062 12.824219 2.945312 C 12.777344 3.125 12.691406 3.25 12.566406 3.324219 C 12.460938 3.386719 12.339844 3.398438 12.207031 3.363281 C 12.054688 3.320312 11.949219 3.234375 11.894531 3.101562 C 11.847656 2.988281 11.84375 2.851562 11.886719 2.695312 C 11.933594 2.519531 12.019531 2.390625 12.144531 2.316406 C 12.253906 2.253906 12.371094 2.242188 12.503906 2.277344 Z M 12.503906 2.277344 "/>
<path style=" stroke:none;fill-rule:evenodd;fill:rgb(0%,0%,0%);fill-opacity:1;" d="M 13.457031 2.113281 L 13.683594 2.203125 L 13.117188 3.640625 L 12.890625 3.550781 Z M 13.457031 2.113281 "/>
<path style=" stroke:none;fill-rule:evenodd;fill:rgb(0%,0%,0%);fill-opacity:1;" d="M 13.886719 2.796875 L 14.109375 2.914062 L 13.773438 3.542969 C 13.71875 3.648438 13.734375 3.722656 13.824219 3.769531 C 13.867188 3.792969 13.917969 3.800781 13.980469 3.789062 C 14.035156 3.777344 14.082031 3.757812 14.128906 3.726562 L 14.460938 3.101562 L 14.679688 3.21875 L 14.175781 4.164062 L 13.960938 4.050781 L 14.050781 3.890625 C 13.980469 3.929688 13.910156 3.953125 13.832031 3.957031 C 13.761719 3.957031 13.703125 3.945312 13.640625 3.914062 C 13.558594 3.867188 13.503906 3.804688 13.480469 3.726562 C 13.460938 3.648438 13.472656 3.570312 13.519531 3.488281 Z M 13.886719 2.796875 "/>
<path style=" stroke:none;fill-rule:evenodd;fill:rgb(0%,0%,0%);fill-opacity:1;" d="M 15.472656 3.339844 L 15.269531 3.625 L 15.464844 3.765625 L 15.359375 3.910156 L 15.164062 3.769531 L 14.820312 4.25 C 14.761719 4.332031 14.765625 4.402344 14.839844 4.453125 C 14.878906 4.480469 14.914062 4.5 14.949219 4.515625 L 14.835938 4.652344 C 14.789062 4.628906 14.734375 4.59375 14.675781 4.550781 C 14.585938 4.488281 14.539062 4.421875 14.53125 4.351562 C 14.523438 4.289062 14.542969 4.21875 14.597656 4.144531 L 14.96875 3.628906 L 14.835938 3.535156 L 14.941406 3.390625 L 15.070312 3.484375 L 15.242188 3.242188 Z M 15.472656 3.339844 "/>
<path style=" stroke:none;fill-rule:evenodd;fill:rgb(0%,0%,0%);fill-opacity:1;" d="M 15.679688 3.945312 L 15.867188 4.105469 L 15.164062 4.917969 L 14.976562 4.757812 Z M 15.964844 3.601562 L 16.164062 3.777344 L 16 3.96875 L 15.796875 3.792969 Z M 15.964844 3.601562 "/>
<path style=" stroke:none;fill-rule:evenodd;fill:rgb(0%,0%,0%);fill-opacity:1;" d="M 16.34375 4.796875 C 16.238281 4.679688 16.09375 4.710938 15.902344 4.878906 C 15.710938 5.054688 15.667969 5.195312 15.773438 5.3125 C 15.875 5.429688 16.023438 5.402344 16.214844 5.226562 C 16.40625 5.054688 16.449219 4.914062 16.34375 4.796875 Z M 16.476562 4.679688 C 16.582031 4.792969 16.621094 4.921875 16.597656 5.066406 C 16.574219 5.191406 16.503906 5.304688 16.386719 5.414062 C 16.25 5.539062 16.109375 5.597656 15.964844 5.59375 C 15.839844 5.585938 15.734375 5.535156 15.640625 5.429688 C 15.535156 5.3125 15.496094 5.183594 15.519531 5.042969 C 15.539062 4.921875 15.609375 4.804688 15.730469 4.695312 C 15.867188 4.574219 16.007812 4.511719 16.152344 4.519531 C 16.277344 4.523438 16.386719 4.578125 16.476562 4.679688 Z M 16.476562 4.679688 "/>
<path style=" stroke:none;fill-rule:evenodd;fill:rgb(0%,0%,0%);fill-opacity:1;" d="M 17.351562 5.863281 C 17.402344 5.945312 17.417969 6.027344 17.390625 6.109375 C 17.371094 6.183594 17.320312 6.246094 17.238281 6.292969 L 16.582031 6.703125 L 16.449219 6.488281 L 17.046875 6.117188 C 17.148438 6.050781 17.175781 5.980469 17.121094 5.894531 C 17.097656 5.855469 17.058594 5.824219 17 5.804688 C 16.953125 5.785156 16.898438 5.777344 16.835938 5.777344 L 16.238281 6.148438 L 16.109375 5.9375 L 17.019531 5.375 L 17.144531 5.578125 L 16.988281 5.675781 C 17.070312 5.679688 17.144531 5.699219 17.210938 5.734375 C 17.273438 5.765625 17.320312 5.808594 17.351562 5.863281 Z M 17.351562 5.863281 "/>
<g clip-path="url(#clip5)" clip-rule="nonzero">
<path style=" stroke:none;fill-rule:evenodd;fill:rgb(0%,0%,0%);fill-opacity:1;" d="M 18.390625 7.105469 L 18.457031 7.363281 L 17.199219 7.699219 L 17.382812 8.386719 L 17.175781 8.441406 L 16.925781 7.5 Z M 18.390625 7.105469 "/>
</g>
<g clip-path="url(#clip6)" clip-rule="nonzero">
<path style=" stroke:none;fill-rule:evenodd;fill:rgb(0%,0%,0%);fill-opacity:1;" d="M 17.753906 9.113281 C 17.746094 9.03125 17.730469 8.949219 17.703125 8.871094 C 17.667969 8.753906 17.601562 8.699219 17.507812 8.707031 C 17.402344 8.714844 17.351562 8.777344 17.359375 8.890625 C 17.367188 8.996094 17.433594 9.074219 17.554688 9.128906 Z M 18.3125 8.894531 C 18.332031 9.167969 18.226562 9.316406 17.988281 9.335938 L 17.5625 9.367188 C 17.460938 9.375 17.355469 9.386719 17.25 9.40625 L 17.230469 9.179688 C 17.269531 9.171875 17.316406 9.160156 17.371094 9.152344 C 17.253906 9.085938 17.191406 8.976562 17.179688 8.828125 C 17.171875 8.722656 17.195312 8.636719 17.257812 8.570312 C 17.3125 8.511719 17.382812 8.480469 17.472656 8.476562 C 17.664062 8.460938 17.789062 8.566406 17.851562 8.796875 C 17.875 8.882812 17.890625 8.984375 17.90625 9.101562 L 17.964844 9.097656 C 18.035156 9.089844 18.085938 9.070312 18.113281 9.035156 C 18.136719 9.003906 18.144531 8.957031 18.140625 8.898438 C 18.136719 8.839844 18.117188 8.796875 18.078125 8.761719 C 18.042969 8.730469 17.996094 8.710938 17.9375 8.707031 L 17.984375 8.472656 C 18.183594 8.511719 18.292969 8.652344 18.3125 8.894531 Z M 18.3125 8.894531 "/>
</g>
<g clip-path="url(#clip7)" clip-rule="nonzero">
<path style=" stroke:none;fill-rule:evenodd;fill:rgb(0%,0%,0%);fill-opacity:1;" d="M 18.082031 10.230469 C 18.09375 10.128906 18.042969 10.046875 17.925781 9.976562 L 17.554688 9.933594 C 17.429688 9.96875 17.359375 10.03125 17.347656 10.125 C 17.339844 10.199219 17.367188 10.261719 17.429688 10.308594 C 17.488281 10.355469 17.578125 10.386719 17.691406 10.402344 C 17.820312 10.417969 17.917969 10.40625 17.988281 10.367188 C 18.042969 10.335938 18.074219 10.289062 18.082031 10.230469 Z M 18.777344 9.835938 L 18.746094 10.078125 L 18.125 10 C 18.179688 10.042969 18.21875 10.097656 18.242188 10.15625 C 18.265625 10.210938 18.273438 10.261719 18.265625 10.316406 C 18.25 10.445312 18.183594 10.539062 18.070312 10.597656 C 17.964844 10.65625 17.832031 10.671875 17.664062 10.652344 C 17.480469 10.628906 17.339844 10.566406 17.246094 10.457031 C 17.167969 10.375 17.140625 10.277344 17.152344 10.167969 C 17.167969 10.03125 17.246094 9.9375 17.382812 9.890625 L 17.222656 9.820312 L 17.242188 9.648438 Z M 18.777344 9.835938 "/>
</g>
<path style=" stroke:none;fill-rule:evenodd;fill:rgb(0%,0%,0%);fill-opacity:1;" d="M 2.78125 11.230469 L 2.886719 11.882812 L 2.664062 11.917969 L 2.558594 11.265625 Z M 2.78125 11.230469 "/>
<path style=" stroke:none;fill-rule:evenodd;fill:rgb(0%,0%,0%);fill-opacity:1;" d="M 3.921875 12.265625 L 4.164062 12.699219 L 3.484375 13.324219 C 3.332031 13.464844 3.183594 13.59375 3.035156 13.714844 L 3.050781 13.742188 C 3.101562 13.730469 3.203125 13.703125 3.351562 13.660156 C 3.460938 13.628906 3.550781 13.605469 3.621094 13.585938 L 4.519531 13.347656 L 4.757812 13.785156 L 3.21875 14.628906 L 3.078125 14.375 L 3.855469 13.949219 C 3.976562 13.882812 4.15625 13.785156 4.402344 13.652344 L 4.386719 13.625 C 4.136719 13.699219 3.9375 13.75 3.792969 13.785156 L 2.882812 14.015625 L 2.710938 13.703125 L 3.386719 13.066406 C 3.425781 13.027344 3.578125 12.886719 3.847656 12.644531 L 3.832031 12.613281 C 3.65625 12.714844 3.472656 12.820312 3.289062 12.921875 L 2.511719 13.347656 L 2.382812 13.109375 Z M 3.921875 12.265625 "/>
<path style=" stroke:none;fill-rule:evenodd;fill:rgb(0%,0%,0%);fill-opacity:1;" d="M 4.457031 15.078125 C 4.390625 15.011719 4.320312 14.949219 4.238281 14.894531 C 4.121094 14.816406 4.023438 14.816406 3.945312 14.890625 C 3.851562 14.976562 3.851562 15.066406 3.941406 15.164062 C 4.027344 15.253906 4.140625 15.277344 4.289062 15.234375 Z M 4.800781 14.476562 C 5.023438 14.710938 5.03125 14.921875 4.832031 15.109375 L 4.472656 15.445312 C 4.382812 15.527344 4.296875 15.617188 4.214844 15.710938 L 4.039062 15.519531 C 4.066406 15.480469 4.101562 15.441406 4.140625 15.394531 C 3.988281 15.414062 3.851562 15.363281 3.734375 15.238281 C 3.648438 15.148438 3.613281 15.054688 3.617188 14.949219 C 3.625 14.859375 3.664062 14.777344 3.742188 14.707031 C 3.902344 14.554688 4.097656 14.5625 4.320312 14.722656 C 4.402344 14.785156 4.492188 14.863281 4.585938 14.957031 L 4.640625 14.910156 C 4.699219 14.851562 4.730469 14.800781 4.726562 14.746094 C 4.726562 14.703125 4.699219 14.652344 4.652344 14.601562 C 4.609375 14.554688 4.554688 14.53125 4.496094 14.527344 C 4.441406 14.523438 4.386719 14.542969 4.332031 14.578125 L 4.199219 14.332031 C 4.410156 14.222656 4.613281 14.273438 4.800781 14.476562 Z M 4.800781 14.476562 "/>
<path style=" stroke:none;fill-rule:evenodd;fill:rgb(0%,0%,0%);fill-opacity:1;" d="M 5.816406 15.367188 L 5.632812 15.566406 C 5.511719 15.46875 5.351562 15.476562 5.160156 15.59375 L 4.734375 16.132812 L 4.515625 15.960938 L 5.285156 14.984375 L 5.496094 15.152344 L 5.308594 15.390625 C 5.507812 15.265625 5.675781 15.257812 5.816406 15.367188 Z M 5.816406 15.367188 "/>
<g clip-path="url(#clip8)" clip-rule="nonzero">
<path style=" stroke:none;fill-rule:evenodd;fill:rgb(0%,0%,0%);fill-opacity:1;" d="M 5.871094 15.449219 L 6.121094 15.59375 L 5.710938 16.3125 C 5.644531 16.429688 5.660156 16.519531 5.761719 16.574219 C 5.808594 16.605469 5.871094 16.613281 5.941406 16.601562 C 6.003906 16.589844 6.0625 16.570312 6.117188 16.535156 L 6.523438 15.824219 L 6.769531 15.96875 L 6.152344 17.046875 L 5.910156 16.90625 L 6.019531 16.722656 C 5.9375 16.769531 5.851562 16.792969 5.761719 16.792969 C 5.683594 16.792969 5.613281 16.773438 5.546875 16.734375 C 5.449219 16.679688 5.386719 16.601562 5.367188 16.511719 C 5.34375 16.421875 5.363281 16.332031 5.417969 16.238281 Z M 5.871094 15.449219 "/>
</g>
<g clip-path="url(#clip9)" clip-rule="nonzero">
<path style=" stroke:none;fill-rule:evenodd;fill:rgb(0%,0%,0%);fill-opacity:1;" d="M 6.851562 16.007812 L 7.136719 16.117188 L 7.074219 16.648438 C 7.066406 16.714844 7.054688 16.804688 7.039062 16.910156 C 7.027344 17.023438 7.015625 17.101562 7.011719 17.140625 L 7.035156 17.148438 C 7.066406 17.109375 7.117188 17.035156 7.1875 16.929688 C 7.242188 16.851562 7.289062 16.785156 7.324219 16.734375 L 7.632812 16.304688 L 7.890625 16.402344 L 7.085938 17.425781 L 6.773438 17.308594 Z M 6.851562 16.007812 "/>
</g>
<g clip-path="url(#clip10)" clip-rule="nonzero">
<path style=" stroke:none;fill-rule:evenodd;fill:rgb(0%,0%,0%);fill-opacity:1;" d="M 8.117188 15.894531 L 8.390625 15.953125 L 8.15625 17.019531 L 8.710938 16.582031 L 9.023438 16.652344 L 8.519531 17.015625 L 8.777344 17.871094 L 8.472656 17.804688 L 8.296875 17.164062 L 8.09375 17.3125 L 8.007812 17.703125 L 7.730469 17.640625 Z M 8.117188 15.894531 "/>
</g>
<g clip-path="url(#clip11)" clip-rule="nonzero">
<path style=" stroke:none;fill-rule:evenodd;fill:rgb(0%,0%,0%);fill-opacity:1;" d="M 9.769531 17.335938 C 9.675781 17.332031 9.578125 17.339844 9.484375 17.355469 C 9.34375 17.378906 9.273438 17.441406 9.265625 17.550781 C 9.257812 17.675781 9.320312 17.742188 9.453125 17.75 C 9.570312 17.757812 9.671875 17.699219 9.753906 17.566406 Z M 9.609375 16.660156 C 9.929688 16.683594 10.082031 16.828125 10.0625 17.105469 L 10.03125 17.597656 C 10.019531 17.714844 10.019531 17.839844 10.023438 17.964844 L 9.761719 17.945312 C 9.757812 17.898438 9.753906 17.84375 9.753906 17.78125 C 9.65625 17.90625 9.519531 17.960938 9.351562 17.949219 C 9.226562 17.941406 9.132812 17.898438 9.066406 17.816406 C 9.011719 17.746094 8.984375 17.660156 8.992188 17.554688 C 9.007812 17.335938 9.152344 17.207031 9.425781 17.171875 C 9.527344 17.160156 9.644531 17.15625 9.78125 17.160156 L 9.785156 17.089844 C 9.789062 17.007812 9.777344 16.949219 9.738281 16.910156 C 9.707031 16.878906 9.65625 16.859375 9.585938 16.855469 C 9.519531 16.851562 9.464844 16.871094 9.417969 16.910156 C 9.378906 16.945312 9.347656 16.992188 9.332031 17.058594 L 9.070312 16.96875 C 9.152344 16.746094 9.328125 16.640625 9.609375 16.660156 Z M 9.609375 16.660156 "/>
</g>
<g clip-path="url(#clip12)" clip-rule="nonzero">
<path style=" stroke:none;fill-rule:evenodd;fill:rgb(0%,0%,0%);fill-opacity:1;" d="M 10.285156 16.207031 L 10.589844 16.179688 L 10.726562 17.683594 L 11.546875 17.609375 L 11.570312 17.855469 L 10.441406 17.957031 Z M 10.285156 16.207031 "/>
</g>
<g clip-path="url(#clip13)" clip-rule="nonzero">
<path style=" stroke:none;fill-rule:evenodd;fill:rgb(0%,0%,0%);fill-opacity:1;" d="M 12.390625 17.03125 C 12.296875 17.058594 12.207031 17.09375 12.121094 17.136719 C 11.996094 17.203125 11.949219 17.289062 11.976562 17.390625 C 12.007812 17.511719 12.085938 17.558594 12.214844 17.527344 C 12.332031 17.496094 12.410156 17.40625 12.445312 17.257812 Z M 12.027344 16.441406 C 12.339844 16.359375 12.527344 16.453125 12.59375 16.722656 L 12.714844 17.199219 C 12.746094 17.316406 12.78125 17.433594 12.824219 17.550781 L 12.570312 17.613281 C 12.550781 17.570312 12.53125 17.519531 12.511719 17.460938 C 12.457031 17.609375 12.34375 17.703125 12.179688 17.746094 C 12.058594 17.773438 11.957031 17.761719 11.871094 17.707031 C 11.792969 17.65625 11.742188 17.582031 11.71875 17.480469 C 11.664062 17.265625 11.761719 17.101562 12.011719 16.984375 C 12.101562 16.941406 12.214844 16.898438 12.34375 16.863281 L 12.328125 16.792969 C 12.308594 16.714844 12.273438 16.660156 12.226562 16.636719 C 12.1875 16.617188 12.132812 16.617188 12.066406 16.632812 C 12 16.648438 11.953125 16.683594 11.921875 16.734375 C 11.894531 16.78125 11.882812 16.835938 11.886719 16.902344 L 11.613281 16.898438 C 11.617188 16.660156 11.757812 16.507812 12.027344 16.441406 Z M 12.027344 16.441406 "/>
</g>
<g clip-path="url(#clip14)" clip-rule="nonzero">
<path style=" stroke:none;fill-rule:evenodd;fill:rgb(0%,0%,0%);fill-opacity:1;" d="M 13.289062 16.246094 C 13.183594 16.292969 13.128906 16.390625 13.128906 16.546875 L 13.300781 16.949219 C 13.410156 17.050781 13.515625 17.082031 13.613281 17.039062 C 13.691406 17.007812 13.738281 16.941406 13.75 16.851562 C 13.761719 16.761719 13.742188 16.65625 13.6875 16.535156 C 13.628906 16.398438 13.558594 16.304688 13.480469 16.257812 C 13.414062 16.222656 13.351562 16.21875 13.289062 16.246094 Z M 12.488281 15.78125 L 12.746094 15.671875 L 13.035156 16.335938 C 13.046875 16.257812 13.074219 16.1875 13.121094 16.125 C 13.164062 16.074219 13.210938 16.039062 13.269531 16.011719 C 13.40625 15.953125 13.539062 15.960938 13.664062 16.039062 C 13.78125 16.113281 13.878906 16.238281 13.957031 16.414062 C 14.042969 16.613281 14.058594 16.792969 14.007812 16.949219 C 13.964844 17.074219 13.886719 17.160156 13.769531 17.210938 C 13.625 17.273438 13.488281 17.253906 13.363281 17.144531 L 13.386719 17.34375 L 13.199219 17.425781 Z M 12.488281 15.78125 "/>
</g>
<path style=" stroke:none;fill-rule:evenodd;fill:rgb(0%,0%,0%);fill-opacity:1;" d="M 14.304688 16.558594 L 14.582031 16.394531 L 14.742188 16.664062 L 14.464844 16.828125 Z M 14.304688 16.558594 "/>
<path style=" stroke:none;fill-rule:evenodd;fill:rgb(0%,0%,0%);fill-opacity:1;" d="M 14.683594 15.164062 C 14.796875 15.074219 14.910156 15.035156 15.03125 15.042969 C 15.132812 15.050781 15.230469 15.09375 15.324219 15.171875 L 15.140625 15.390625 C 15.019531 15.273438 14.910156 15.25 14.8125 15.324219 C 14.667969 15.4375 14.679688 15.609375 14.859375 15.84375 C 15.039062 16.078125 15.203125 16.140625 15.351562 16.027344 C 15.457031 15.949219 15.464844 15.832031 15.382812 15.675781 L 15.636719 15.574219 C 15.695312 15.703125 15.707031 15.824219 15.667969 15.9375 C 15.636719 16.035156 15.574219 16.121094 15.472656 16.199219 C 15.324219 16.3125 15.167969 16.347656 15.011719 16.304688 C 14.871094 16.269531 14.746094 16.175781 14.632812 16.023438 C 14.5 15.851562 14.445312 15.6875 14.464844 15.523438 C 14.480469 15.378906 14.554688 15.261719 14.683594 15.164062 Z M 14.683594 15.164062 "/>
<path style=" stroke:none;fill-rule:evenodd;fill:rgb(0%,0%,0%);fill-opacity:1;" d="M 15.636719 14.566406 C 15.511719 14.699219 15.558594 14.867188 15.777344 15.066406 C 15.996094 15.269531 16.167969 15.304688 16.289062 15.171875 C 16.414062 15.039062 16.363281 14.871094 16.144531 14.667969 C 15.925781 14.46875 15.757812 14.433594 15.636719 14.566406 Z M 15.484375 14.429688 C 15.605469 14.292969 15.75 14.234375 15.917969 14.246094 C 16.0625 14.257812 16.203125 14.328125 16.339844 14.453125 C 16.5 14.597656 16.582031 14.753906 16.59375 14.917969 C 16.597656 15.0625 16.550781 15.191406 16.441406 15.308594 C 16.320312 15.445312 16.171875 15.503906 16.007812 15.492188 C 15.863281 15.480469 15.722656 15.410156 15.585938 15.285156 C 15.425781 15.140625 15.34375 14.984375 15.335938 14.816406 C 15.328125 14.675781 15.375 14.542969 15.484375 14.429688 Z M 15.484375 14.429688 "/>
<path style=" stroke:none;fill-rule:evenodd;fill:rgb(0%,0%,0%);fill-opacity:1;" d="M 16.25 13.394531 C 16.292969 13.320312 16.347656 13.269531 16.417969 13.246094 C 16.476562 13.222656 16.542969 13.222656 16.609375 13.242188 C 16.519531 13.070312 16.507812 12.917969 16.582031 12.78125 C 16.636719 12.683594 16.707031 12.625 16.800781 12.605469 C 16.886719 12.589844 16.976562 12.605469 17.074219 12.660156 L 17.863281 13.085938 L 17.726562 13.335938 L 17.007812 12.949219 C 16.886719 12.882812 16.796875 12.898438 16.742188 13 C 16.71875 13.046875 16.710938 13.101562 16.726562 13.167969 C 16.742188 13.222656 16.765625 13.277344 16.804688 13.328125 L 17.519531 13.714844 L 17.386719 13.964844 L 16.667969 13.574219 C 16.546875 13.507812 16.460938 13.519531 16.414062 13.613281 C 16.386719 13.65625 16.382812 13.714844 16.394531 13.78125 C 16.40625 13.839844 16.433594 13.894531 16.46875 13.949219 L 17.1875 14.335938 L 17.054688 14.582031 L 15.960938 13.992188 L 16.089844 13.753906 L 16.28125 13.855469 C 16.1875 13.6875 16.175781 13.53125 16.25 13.394531 Z M 16.25 13.394531 "/>
<path style=" stroke:none;fill-rule:evenodd;fill:rgb(0%,0%,0%);fill-opacity:1;" d="M 17.351562 11.890625 L 17.457031 11.234375 L 17.675781 11.269531 L 17.570312 11.925781 Z M 17.351562 11.890625 "/>
</g>
</svg>
